<svg height="512pt" viewBox="-82 0 512 512.00163" width="512pt" xmlns="http://www.w3.org/2000/svg"><path d="m340.503906 174.066406c0-92.023437-74.683594-166.605468-166.75-166.4375-92.085937.167969-166.992187 75.96875-166.117187 168.050782.347656 36.683593 12.566406 70.53125 33 97.886718 7.949219 10.640625 12.410156 23.476563 12.410156 36.757813v.988281c0 25.019531 20.28125 45.304688 45.304687 45.304688h151.429688c25.019531 0 45.304688-20.285157 45.304688-45.304688v-.972656c0-13.003906 4.078124-25.734375 11.914062-36.113282 21.03125-27.867187 33.503906-62.554687 33.503906-100.160156zm0 0" fill="#ffbf3e"/><path d="m133.894531 356.621094h-35.546875c-25.019531 0-45.308594-20.292969-45.308594-45.3125v-.984375c0-13.285157-4.457031-26.121094-12.410156-36.757813-20.433594-27.359375-32.648437-61.199218-32.992187-97.882812-.875-92.089844 74.03125-167.882813 166.109375-168.054688-48.792969.335938-88.445313 76.058594-87.980469 168.054688.183594 36.683594 6.664063 70.523437 17.503906 97.882812 4.222657 10.636719 6.582031 23.472656 6.582031 36.757813v.984375c0 25.023437 10.769532 45.3125 24.042969 45.3125zm0 0" fill="#e8a328"/><path d="m294.550781 381.242188c0 6.804687-2.757812 12.960937-7.210937 17.414062-4.464844 4.453125-10.621094 7.210938-17.421875 7.210938h-192.238281c-13.609376 0-24.636719-11.023438-24.636719-24.625 0-6.800782 2.757812-12.957032 7.210937-17.410157 4.457032-4.457031 10.621094-7.210937 17.425782-7.210937h192.238281c13.605469 0 24.632812 11.023437 24.632812 24.621094zm0 0" fill="#40404c"/><path d="m276.425781 430.492188c0 6.804687-2.757812 12.964843-7.210937 17.421874-4.457032 4.453126-10.609375 7.210938-17.414063 7.210938h-156.007812c-13.597657 0-24.632813-11.027344-24.632813-24.632812 0-6.804688 2.753906-12.957032 7.21875-17.414063 4.457032-4.453125 10.621094-7.210937 17.414063-7.210937h156.007812c13.601563 0 24.625 11.023437 24.625 24.625zm0 0" fill="#40404c"/><path d="m294.550781 381.242188c0 6.804687-2.757812 12.960937-7.210937 17.414062-4.464844 4.453125-10.621094 7.210938-17.421875 7.210938h-141.761719c-13.597656 0-24.625-11.023438-24.625-24.625 0-6.800782 2.757812-12.957032 7.210938-17.410157 4.457031-4.457031 10.621093-7.210937 17.414062-7.210937h141.761719c13.605469 0 24.632812 11.023437 24.632812 24.621094zm0 0" fill="#5b5b68"/><path d="m276.425781 430.492188c0 6.804687-2.757812 12.964843-7.210937 17.421874-4.457032 4.453126-10.609375 7.210938-17.414063 7.210938h-105.53125c-13.597656 0-24.625-11.027344-24.625-24.632812 0-6.804688 2.757813-12.957032 7.214844-17.414063 4.453125-4.453125 10.605469-7.210937 17.410156-7.210937h105.53125c13.601563 0 24.625 11.023437 24.625 24.625zm0 0" fill="#5b5b68"/><path d="m223.050781 455.125c0 21.683594-14.015625 40.09375-33.492187 46.675781-4.953125 1.667969-10.253906 2.570313-15.765625 2.570313-27.199219 0-49.246094-22.050782-49.246094-49.246094zm0 0" fill="#cacadb"/><path d="m223.050781 455.125c0 21.683594-14.015625 40.09375-33.492187 46.675781-19.46875-6.582031-33.484375-24.992187-33.484375-46.675781zm0 0" fill="#e4e4ef"/><path d="m329.089844 94.824219c-1.921875-3.75-6.515625-5.230469-10.265625-3.3125-3.75 1.921875-5.234375 6.519531-3.3125 10.269531 11.523437 22.5 17.367187 46.820312 17.367187 72.285156 0 34.808594-11.054687 67.855469-31.96875 95.5625-8.675781 11.496094-13.453125 25.953125-13.453125 40.707032v.972656c0 20.777344-16.902343 37.679687-37.675781 37.679687h-68.085938v-96.597656c27.527344-3.738281 48.820313-27.382813 48.820313-55.917969 0-4.214844-3.417969-7.628906-7.628906-7.628906-4.214844 0-7.628907 3.414062-7.628907 7.628906 0 22.710938-18.476562 41.191406-41.191406 41.191406s-41.191406-18.480468-41.191406-41.191406c0-4.214844-3.414062-7.628906-7.628906-7.628906-4.210938 0-7.628906 3.414062-7.628906 7.628906 0 28.535156 21.292968 52.179688 48.820312 55.917969v96.597656h-68.085938c-20.773437 0-37.675781-16.902343-37.675781-37.679687v-.984375c0-14.839844-4.816406-29.128907-13.929687-41.324219-20.273438-27.144531-31.160156-59.441406-31.484375-93.394531-.402344-42.5 15.941406-82.65625 46.015625-113.074219 30.066406-30.40625 70.015625-47.195312 112.492187-47.273438h.300781c49.964844 0 96.007813 22.804688 126.355469 62.601563 2.558594 3.347656 7.34375 3.992187 10.691407 1.4375 3.351562-2.554687 3.996093-7.339844 1.441406-10.6875-15.933594-20.898437-36.722656-38.191406-60.117188-50.007813-24.539062-12.394531-51.058594-18.6718745-78.699218-18.601562-46.574219.0859375-90.367188 18.484375-123.3125 51.800781-32.957032 33.332031-50.863282 77.351563-50.4218755 123.949219.3554685 37.21875 12.2890625 72.621094 34.5195315 102.378906 7.125 9.539063 10.890625 20.671875 10.890625 32.195313v.984375c0 16.269531 7.382812 30.839844 18.964843 40.558594-11.171874 5.074218-18.964843 16.328124-18.964843 29.375 0 14.832031 10.070312 27.351562 23.726562 31.101562-3.539062 5.175781-5.609375 11.425781-5.609375 18.152344 0 17.785156 14.46875 32.253906 32.253906 32.253906h21.652344c3.742188 27.769531 27.578125 49.25 56.355469 49.25s52.613281-21.484375 56.351563-49.25h21.652343c17.785157 0 32.253907-14.46875 32.253907-32.253906 0-6.726563-2.070313-12.976563-5.605469-18.152344 13.65625-3.75 23.722656-16.269531 23.722656-31.101562 0-12.910157-7.628906-24.066407-18.609375-29.214844 11.691406-9.71875 19.152344-24.359375 19.152344-40.714844v-.972656c0-11.460938 3.683594-22.652344 10.371094-31.519532 22.925781-30.375 35.046874-66.601562 35.046874-104.75 0-27.910156-6.40625-54.570312-19.042968-79.246093zm-155.292969 401.921875c-20.347656 0-37.316406-14.679688-40.910156-33.996094h81.820312c-3.59375 19.316406-20.566406 33.996094-40.910156 33.996094zm96.121094-132.5c9.375 0 17 7.625 17 16.996094 0 9.375-7.625 17-17 17h-132.792969c-4.210938 0-7.628906 3.414062-7.628906 7.625 0 4.214843 3.417968 7.628906 7.628906 7.628906h114.675781c9.375 0 17 7.625 17 17 0 9.371094-7.625 16.996094-17 16.996094h-156.011719c-9.371093 0-16.996093-7.625-16.996093-16.996094 0-9.375 7.625-17 16.996093-17h10.824219c4.210938 0 7.625-3.414063 7.625-7.628906 0-4.210938-3.414062-7.625-7.625-7.625h-28.941406c-9.371094 0-16.996094-7.628907-16.996094-17 0-9.375 7.625-16.996094 16.996094-16.996094zm0 0"/></svg>