<svg width="25" height="25" viewBox="0 0 25 25" fill="none" xmlns="http://www.w3.org/2000/svg">
<g clip-path="url(#clip0)">
<path d="M24.9021 22.6394L23.1859 17.6447C24.0114 15.976 24.4479 14.1161 24.4509 12.2446C24.4558 9.02188 23.2089 5.97457 20.9397 3.66422C18.6701 1.35343 15.6457 0.0527525 12.4238 0.00162953C10.7358 -0.02547 9.09781 0.285565 7.55289 0.925065C6.0628 1.54191 4.72653 2.43541 3.58122 3.58072C2.43586 4.72604 1.54235 6.06231 0.925559 7.5524C0.286058 9.09732 -0.0246344 10.7361 0.00207454 12.4233C0.0530998 15.6453 1.35383 18.6696 3.66462 20.9392C5.97047 23.204 9.00992 24.4506 12.2257 24.4505C12.232 24.4505 12.2387 24.4505 12.245 24.4505C14.1164 24.4476 15.9764 24.011 17.6451 23.1855L22.6398 24.9018C22.8319 24.9678 23.0288 25 23.2235 25C23.6861 25 24.1361 24.8182 24.4773 24.4769C24.9621 23.9921 25.125 23.288 24.9021 22.6394ZM23.4292 23.4289C23.3801 23.4781 23.2748 23.5527 23.1214 23.5L17.8287 21.6814C17.7505 21.6545 17.6691 21.6411 17.5879 21.6411C17.4683 21.6411 17.3492 21.6701 17.2413 21.7272C15.7117 22.5364 13.9832 22.9656 12.2426 22.9682C6.40523 22.9777 1.57653 18.2363 1.48405 12.3998C1.43752 9.46338 2.55451 6.70357 4.62926 4.62882C6.70401 2.55412 9.46299 1.43732 12.4003 1.48376C18.2367 1.57628 22.9777 6.4026 22.9686 12.2423C22.9658 13.983 22.5367 15.7115 21.7275 17.241C21.6317 17.4221 21.6152 17.6347 21.6817 17.8284L23.5004 23.1211C23.5531 23.2743 23.4784 23.3798 23.4292 23.4289Z" fill="black"/>
<path d="M12.105 17.7122C11.7174 17.7122 11.346 18.053 11.3639 18.4533C11.3819 18.8548 11.6895 19.1944 12.105 19.1944C12.4927 19.1944 12.8641 18.8535 12.8461 18.4533C12.8282 18.0517 12.5205 17.7122 12.105 17.7122Z" fill="black"/>
<path d="M12.105 6.23413C10.0718 6.23413 8.41772 7.88823 8.41772 9.92138C8.41772 10.3307 8.74956 10.6625 9.15884 10.6625C9.56811 10.6625 9.89995 10.3307 9.89995 9.92138C9.89995 8.70556 10.8892 7.71635 12.105 7.71635C13.3208 7.71635 14.31 8.70556 14.31 9.92138C14.31 11.1372 13.3208 12.1264 12.105 12.1264C11.6957 12.1264 11.3639 12.4582 11.3639 12.8675V15.8902C11.3639 16.2995 11.6957 16.6313 12.105 16.6313C12.5143 16.6313 12.8461 16.2995 12.8461 15.8902V13.5338C14.5252 13.1898 15.7922 11.7008 15.7922 9.92138C15.7922 7.88823 14.1381 6.23413 12.105 6.23413Z" fill="black"/>
</g>
<defs>
<clipPath id="clip0">
<rect width="25" height="25" fill="white"/>
</clipPath>
</defs>
</svg>
