<svg width="25" height="25" viewBox="0 0 25 25" fill="none" xmlns="http://www.w3.org/2000/svg">
<g clip-path="url(#clip0)">
<path d="M24.7342 10.1593L12.8838 1.48264C12.6553 1.31536 12.3448 1.31536 12.1164 1.48264L0.265897 10.1593C-0.0235557 10.3712 -0.0864464 10.7777 0.125517 11.0671C0.337479 11.3566 0.743974 11.4194 1.03338 11.2075L12.5 2.81179L23.9667 11.2074C24.0823 11.2922 24.2167 11.3329 24.3499 11.3329C24.5499 11.3329 24.7472 11.2409 24.8745 11.0671C25.0865 10.7777 25.0236 10.3712 24.7342 10.1593Z" fill="black"/>
<path d="M21.5941 11.3547C21.2354 11.3547 20.9445 11.6456 20.9445 12.0043V22.3436H15.7481V16.6998C15.7481 14.9087 14.291 13.4517 12.5001 13.4517C10.7092 13.4517 9.25203 14.9088 9.25203 16.6998V22.3437H4.05559V12.0043C4.05559 11.6456 3.76472 11.3548 3.40603 11.3548C3.04734 11.3548 2.75647 11.6456 2.75647 12.0043V22.9933C2.75647 23.352 3.04734 23.6428 3.40603 23.6428H9.90159C10.2432 23.6428 10.5227 23.3789 10.5486 23.0438C10.5502 23.0287 10.5511 23.0121 10.5511 22.9933V16.6998C10.5511 15.6251 11.4254 14.7509 12.5001 14.7509C13.5747 14.7509 14.449 15.6252 14.449 16.6998V22.9933C14.449 23.012 14.45 23.0283 14.4515 23.0433C14.4771 23.3786 14.7568 23.6428 15.0986 23.6428H21.5941C21.9529 23.6428 22.2437 23.352 22.2437 22.9933V12.0043C22.2436 11.6456 21.9528 11.3547 21.5941 11.3547Z" fill="black"/>
</g>
<defs>
<clipPath id="clip0">
<rect width="25" height="25" fill="white"/>
</clipPath>
</defs>
</svg>
