<svg width="25" height="25" viewBox="0 0 25 25" fill="none" xmlns="http://www.w3.org/2000/svg">
<path d="M16.129 24.1935V21.3101C16.129 21.1394 16.1641 20.9742 16.2334 20.8189L17.5681 17.8158C17.6831 17.5565 17.7419 17.2806 17.7419 16.9963V16.129H22.9839V2.01613H20.1613V0H15.7258C14.323 0 13.1041 0.799954 12.5 1.9673C11.8959 0.799954 10.677 0 9.27419 0H4.83871V2.01613H2.01613V16.129H7.25806V16.9209C7.25806 17.2629 7.34588 17.6012 7.51166 17.9L9.1222 20.7984C9.22143 20.977 9.27419 21.1802 9.27419 21.3855V24.1935H0V25H25V24.1935H16.129ZM22.1774 2.82258V15.3226H13.7097V15.7258C13.7097 16.3927 13.1669 16.9355 12.5 16.9355C12.4496 16.9355 12.4008 16.9231 12.3508 16.9166C12.1375 16.0209 11.6935 15.1972 11.0452 14.5161H20.1613V2.82258H22.1774ZM5.64516 0.806452H9.27419C10.8302 0.806452 12.0968 2.07264 12.0968 3.62903V6.85484H12.9032V3.62903C12.9032 2.07264 14.1698 0.806452 15.7258 0.806452H19.3548V13.7097H12.9032V7.66129H12.0968V13.7097H10.4839V11.6935C10.4839 10.3592 9.39882 9.27419 8.06452 9.27419C7.61975 9.27419 7.25806 9.63588 7.25806 10.0806V13.7097H5.64516V0.806452ZM2.82258 15.3226V2.82258H4.83871V14.5161H7.25806V15.3226H2.82258ZM8.21651 17.5084C8.11728 17.3295 8.06452 17.1263 8.06452 16.9209V10.0806C8.95405 10.0806 9.67742 10.804 9.67742 11.6935V14.2799L10.3862 14.9887C11.2295 15.8319 11.6935 16.9528 11.6935 18.1452H12.5C12.5 18.0093 12.4904 17.875 12.4803 17.7408C12.487 17.7408 12.4935 17.7419 12.5 17.7419C13.4738 17.7419 14.2883 17.0479 14.4754 16.129H16.9355V16.9963C16.9355 17.167 16.9004 17.3322 16.8311 17.4876L15.4964 20.4907C15.4283 20.6439 15.3864 20.8045 15.358 20.9677H10.033C9.99146 20.7722 9.92451 20.5822 9.82705 20.4064L8.21651 17.5084ZM10.0806 23.3871H13.7097V22.5806H10.0806V21.7742H15.3226V22.5806H14.5161V23.3871H15.3226V24.1935H10.0806V23.3871Z" fill="black"/>
<path d="M15.7258 10.4836H16.5323V11.2901H15.7258V10.4836Z" fill="black"/>
<path d="M17.3387 10.4836H18.1452V11.2901H17.3387V10.4836Z" fill="black"/>
<path d="M14.1129 10.4836H14.9194V11.2901H14.1129V10.4836Z" fill="black"/>
<path d="M13.7096 12.0969H18.5483V12.9034H13.7096V12.0969Z" fill="black"/>
<path d="M13.7096 8.87109H18.5483V9.67755H13.7096V8.87109Z" fill="black"/>
<path d="M13.7096 6.04834H18.5483V6.85479H13.7096V6.04834Z" fill="black"/>
<path d="M13.7096 4.4353H18.5483V5.24175H13.7096V4.4353Z" fill="black"/>
<path d="M13.7096 2.82251H18.5483V3.62896H13.7096V2.82251Z" fill="black"/>
<path d="M8.46765 4.4353H9.2741V5.24175H8.46765V4.4353Z" fill="black"/>
<path d="M10.0807 4.4353H10.8871V5.24175H10.0807V4.4353Z" fill="black"/>
<path d="M6.85486 4.4353H7.66131V5.24175H6.85486V4.4353Z" fill="black"/>
<path d="M6.45154 2.82251H11.2902V3.62896H6.45154V2.82251Z" fill="black"/>
<path d="M6.45154 6.04834H11.2902V6.85479H6.45154V6.04834Z" fill="black"/>
<path d="M6.45154 8.57031H11.2902V9.37676H6.45154V8.57031Z" fill="black"/>
</svg>
