<svg width="24" height="25" viewBox="0 0 24 25" fill="none" xmlns="http://www.w3.org/2000/svg">
<path d="M11.5805 4.92847C7.97176 4.93101 5.04698 7.85579 5.04443 11.4645C5.07669 13.8201 6.22281 16.0212 8.13411 17.3984V22.1186C8.13568 22.1726 8.14662 22.2259 8.16654 22.2761V22.3131C8.17453 22.3322 8.18385 22.3508 8.19433 22.3687L9.82487 24.796C9.91114 24.9237 10.0553 25.0001 10.2093 24.9998H12.9053C13.0594 25.0001 13.2035 24.9237 13.2898 24.796L14.9203 22.3687C14.9308 22.3508 14.9401 22.3322 14.9481 22.3131V22.2761C14.968 22.2259 14.9789 22.1726 14.9805 22.1186V17.3984C16.8919 16.0212 18.0379 13.8201 18.0702 11.4645C18.0678 7.8738 15.1711 4.95643 11.5805 4.92847ZM12.6829 24.0873H10.478L9.46819 22.5864H13.6881L12.6829 24.0873ZM9.06519 21.66V20.4325H14.0958L14.1004 21.66H9.06519ZM14.3088 16.7638V16.7777C14.178 16.8638 14.0996 17.0101 14.1004 17.1668V19.5199H9.06519V17.139C9.06594 16.9823 8.98754 16.836 8.85674 16.7499C7.0833 15.5648 6.00602 13.5833 5.97551 11.4506C6.0645 8.35381 8.64713 5.91547 11.7439 6.00447C14.7157 6.08988 17.1047 8.47888 17.1901 11.4506C17.1641 13.5883 16.0863 15.5759 14.3088 16.7638Z" fill="black"/>
<path d="M11.7658 7.0271C11.51 7.0271 11.3026 7.23451 11.3026 7.49032C11.3026 7.74613 11.51 7.95354 11.7658 7.95354C13.6912 7.95609 15.2513 9.51627 15.2539 11.4416C15.2539 11.6974 15.4613 11.9048 15.7171 11.9048C15.9729 11.9048 16.1803 11.6974 16.1803 11.4416C16.1778 9.00459 14.2028 7.02965 11.7658 7.0271Z" fill="black"/>
<path d="M3.79841 10.9783H0.46322C0.207407 10.9783 0 11.1857 0 11.4415C0 11.6973 0.207407 11.9047 0.46322 11.9047H3.79841C4.05422 11.9047 4.26163 11.6973 4.26163 11.4415C4.26163 11.1857 4.05422 10.9783 3.79841 10.9783Z" fill="black"/>
<path d="M22.6978 10.9783H19.3626C19.1068 10.9783 18.8994 11.1857 18.8994 11.4415C18.8994 11.6973 19.1068 11.9047 19.3626 11.9047H22.6978C22.9536 11.9047 23.161 11.6973 23.161 11.4415C23.161 11.1857 22.9536 10.9783 22.6978 10.9783Z" fill="black"/>
<path d="M6.45217 16.6251C6.28576 16.4308 5.99335 16.4081 5.79903 16.5745C5.7809 16.59 5.764 16.607 5.74848 16.6251V16.6158L3.38142 18.9921C3.1871 19.1585 3.16446 19.451 3.33087 19.6453C3.49728 19.8396 3.78969 19.8622 3.98401 19.6958C4.00214 19.6803 4.01904 19.6634 4.03456 19.6453L6.40162 17.2782C6.59594 17.1118 6.61858 16.8194 6.45217 16.6251Z" fill="black"/>
<path d="M19.729 3.24274C19.5556 3.09422 19.2998 3.09422 19.1264 3.24274L16.7593 5.6098C16.5777 5.78993 16.5765 6.08327 16.7566 6.26491C16.8442 6.35327 16.9637 6.40266 17.0882 6.4019L17.0836 6.39727C17.2067 6.39797 17.3251 6.34962 17.4125 6.26294L19.7795 3.89588C19.946 3.70156 19.9233 3.40915 19.729 3.24274Z" fill="black"/>
<path d="M19.8714 19.085C19.8454 19.0498 19.8145 19.0184 19.7795 18.9919L17.4125 16.6156C17.2461 16.4212 16.9537 16.3986 16.7594 16.565C16.565 16.7314 16.5424 17.0238 16.7088 17.2181C16.7243 17.2363 16.7412 17.2532 16.7594 17.2687L19.1264 19.6357C19.2785 19.8415 19.5685 19.885 19.7743 19.7329C19.98 19.5809 20.0235 19.2908 19.8714 19.085Z" fill="black"/>
<path d="M6.40173 5.6098L4.03467 3.24274C3.84035 3.07633 3.54794 3.09897 3.38153 3.29329C3.23301 3.46671 3.23301 3.72246 3.38153 3.89588L5.74859 6.26294C5.94291 6.42935 6.23532 6.40671 6.40173 6.21239C6.55025 6.03897 6.55025 5.78321 6.40173 5.6098Z" fill="black"/>
<path d="M11.5805 0C11.3247 0 11.1173 0.207407 11.1173 0.46322V3.8123C11.1096 4.068 11.3107 4.28155 11.5664 4.28919C11.5711 4.28931 11.5758 4.28942 11.5805 4.28942C11.8363 4.28942 12.0437 4.08201 12.0437 3.8262V0.46322C12.0437 0.207407 11.8363 0 11.5805 0Z" fill="black"/>
</svg>
