<svg width="25" height="25" viewBox="0 0 25 25" fill="none" xmlns="http://www.w3.org/2000/svg">
<path d="M24.9466 18.5574C24.7367 17.8687 24.3593 17.2429 23.8481 16.736C23.0339 15.9173 21.9259 15.4584 20.7712 15.4615C20.1811 15.4618 19.5971 15.5815 19.0544 15.8134L14.7744 11.5334L20.4573 5.8932L21.8032 5.85516C21.966 5.85022 22.1149 5.76224 22.1979 5.62213L24.1239 2.38355C24.2358 2.19666 24.2064 1.95757 24.0526 1.80337L22.3881 0.138901C22.2339 -0.0149429 21.9948 -0.0443683 21.8079 0.0675671L18.5693 1.99359C18.4292 2.07658 18.3412 2.22549 18.3363 2.38831L18.2983 3.72939L12.6296 9.38858L8.73946 5.49849C9.14791 3.13025 7.55917 0.879292 5.19093 0.470844C4.09363 0.28157 2.96548 0.520183 2.03878 1.13758C1.82121 1.28471 1.76409 1.58033 1.91121 1.7979C1.95259 1.85907 2.00763 1.90978 2.07207 1.94604L4.23113 3.14921C4.70669 3.42028 4.8018 4.22873 4.4166 4.91354C4.03139 5.59835 3.29427 5.95027 2.81395 5.68395L0.811832 4.59967C0.581719 4.47305 0.292517 4.55699 0.165958 4.7871C0.122325 4.86634 0.102233 4.9564 0.108058 5.0467C0.258514 7.4452 2.32489 9.26755 4.72339 9.1171C5.21893 9.08601 5.70549 8.97033 6.16197 8.77511L9.70016 12.3133L8.16885 13.8446L7.82168 13.5022C7.43737 13.1344 6.83162 13.1344 6.44731 13.5022L5.97175 13.9778C5.60943 14.3305 5.58648 14.905 5.91943 15.2856L0.293528 20.9019C-0.0859713 21.2651 -0.0992276 21.8672 0.263924 22.2467C0.273554 22.2568 0.283422 22.2667 0.293528 22.2763L1.90093 23.8837C2.26408 24.2632 2.8662 24.2765 3.2457 23.9133C3.25581 23.9037 3.26568 23.8938 3.27531 23.8837L8.90597 18.2578C9.28648 18.5908 9.86102 18.5678 10.2138 18.2055L10.6893 17.7299C11.0688 17.3668 11.0821 16.7647 10.7189 16.3852C10.7093 16.3751 10.6994 16.3652 10.6893 16.3556L10.3422 16.0084L11.864 14.4533L16.4769 19.0663C16.0784 21.4362 17.6765 23.6805 20.0465 24.079C21.4502 24.315 22.8807 23.8496 23.8767 22.8327C24.0513 22.6366 24.034 22.336 23.8378 22.1613C23.7872 22.1162 23.7274 22.0824 23.6627 22.0623L20.9853 21.3442C20.7229 21.2599 20.5152 21.0574 20.4241 20.7973C20.285 20.4387 20.2683 20.0441 20.3765 19.675C20.5763 18.9284 21.2088 18.3957 21.7414 18.5384L24.3903 19.2517C24.4328 19.2579 24.4761 19.2579 24.5187 19.2517C24.7813 19.2549 24.9968 19.0446 25 18.782C25.0008 18.7039 24.9826 18.6267 24.9466 18.5574ZM19.0925 4.25727C19.1781 4.17107 19.2274 4.05533 19.2304 3.93389L19.2684 2.66414L21.9649 1.06149L23.1062 2.20284L21.5369 4.89452L20.2433 4.94208C20.1219 4.94505 20.0061 4.99439 19.9199 5.07999L14.1181 10.8771L13.3001 10.0591L19.0925 4.25727ZM2.59995 23.2084L0.968767 21.5868L6.62321 15.9466L7.44117 16.7646L8.2211 17.573L2.59995 23.2084ZM9.55743 17.5017L8.92969 16.8692L8.68715 16.6266L6.68979 14.615L7.16535 14.1394L10.0187 17.0309L9.55743 17.5017ZM9.64779 15.3331L8.82982 14.5151L10.3611 12.9838L11.1791 13.8018L9.64779 15.3331ZM21.9744 17.6206C21.8332 17.5826 21.6877 17.5634 21.5416 17.5635C20.5048 17.6472 19.649 18.4079 19.4444 19.4277C19.2821 20.0004 19.3138 20.6107 19.5347 21.1635C19.7386 21.6955 20.1807 22.1006 20.7284 22.2573L22.4975 22.7329C20.8843 23.6941 18.7972 23.1657 17.8359 21.5525C17.3844 20.7949 17.245 19.8915 17.447 19.033C17.4832 18.8733 17.4347 18.7062 17.3186 18.5907L6.59943 7.86203C6.44725 7.71906 6.21963 7.69207 6.03826 7.79545C5.54719 8.05457 5.00035 8.19011 4.44513 8.19017C3.01434 8.19141 1.73633 7.29563 1.24935 5.95027L2.33363 6.55423C2.58639 6.69577 2.87143 6.76948 3.16111 6.76824C4.04162 6.71753 4.82915 6.20339 5.22981 5.41764C5.87657 4.26202 5.62453 2.88765 4.6734 2.35502L3.28951 1.57034C5.05801 0.938619 7.00372 1.8602 7.63544 3.62863C7.85468 4.24247 7.8929 4.90635 7.74554 5.54129C7.70933 5.70096 7.75784 5.86806 7.87394 5.98356L18.6169 16.7218C18.7637 16.8688 18.989 16.9035 19.1733 16.8074C19.6644 16.5484 20.2112 16.4129 20.7664 16.4126C21.9707 16.4117 23.0853 17.0486 23.6959 18.0866L21.9744 17.6206Z" fill="black"/>
</svg>
