<svg width="25" height="25" viewBox="0 0 25 25" fill="none" xmlns="http://www.w3.org/2000/svg">
<path d="M24.5834 4.1665H14.5834C14.3533 4.1665 14.1668 4.35307 14.1668 4.58317V8.33317C14.1669 8.56328 14.3536 8.74968 14.5837 8.74953C14.6284 8.74948 14.6727 8.74229 14.7151 8.72817L15.2388 8.55359C15.8075 8.36744 16.4193 8.67755 16.6054 9.24619C16.7915 9.81484 16.4814 10.4267 15.9128 10.6128C15.6938 10.6844 15.4577 10.6844 15.2388 10.6128L14.715 10.4382C14.4967 10.3655 14.2608 10.4835 14.1881 10.7018C14.1739 10.7442 14.1668 10.7885 14.1667 10.8332V14.1665H10.8334C10.6033 14.1667 10.4169 14.3534 10.417 14.5835C10.4171 14.6281 10.4243 14.6725 10.4384 14.7148L10.6129 15.2386C10.7991 15.8072 10.489 16.4191 9.92034 16.6052C9.3517 16.7913 8.73988 16.4812 8.55378 15.9126C8.48212 15.6936 8.48212 15.4575 8.55378 15.2385L8.72836 14.7148C8.80107 14.4965 8.68305 14.2605 8.46472 14.1878C8.42238 14.1737 8.378 14.1665 8.33336 14.1665H4.58341C4.35331 14.1665 4.16675 14.353 4.16675 14.5831V24.5831C4.16675 24.8132 4.35331 24.9998 4.58341 24.9998H24.5834C24.8135 24.9998 25.0001 24.8132 25.0001 24.5831V4.58317C25.0001 4.35307 24.8135 4.1665 24.5834 4.1665ZM14.1881 20.7018C14.174 20.7442 14.1668 20.7885 14.1668 20.8332V24.1665H5.00008V14.9998H7.7555C7.43711 16.0094 7.99743 17.0859 9.00696 17.4042C10.0165 17.7226 11.093 17.1623 11.4113 16.1528C11.5297 15.7776 11.5297 15.375 11.4113 14.9998H14.1668V18.3331C14.1669 18.5632 14.3536 18.7496 14.5837 18.7495C14.6284 18.7494 14.6727 18.7422 14.7151 18.7281L15.2388 18.5535C15.8075 18.3674 16.4193 18.6775 16.6054 19.2461C16.7915 19.8148 16.4814 20.4266 15.9128 20.6127C15.6938 20.6844 15.4577 20.6844 15.2388 20.6127L14.715 20.4381C14.4968 20.3655 14.2608 20.4835 14.1881 20.7018ZM24.1668 24.1665H15.0001V21.4111C16.0096 21.7295 17.0861 21.1692 17.4045 20.1596C17.7228 19.1501 17.1625 18.0736 16.153 17.7553C15.7778 17.6369 15.3752 17.6369 15 17.7553V14.9998H18.3334C18.5635 14.9997 18.7499 14.813 18.7497 14.5829C18.7497 14.5382 18.7425 14.4939 18.7284 14.4515L18.5538 13.9278C18.3677 13.3591 18.6777 12.7473 19.2464 12.5612C19.815 12.3751 20.4269 12.6852 20.613 13.2538C20.6846 13.4728 20.6846 13.7089 20.613 13.9278L20.4384 14.4516C20.3657 14.6699 20.4837 14.9058 20.702 14.9785C20.7444 14.9927 20.7887 14.9998 20.8334 14.9999H24.1667V24.1665H24.1668ZM24.1668 14.1665H21.4113C21.7297 13.157 21.1694 12.0805 20.1599 11.7621C19.1503 11.4437 18.0738 12.0041 17.7555 13.0136C17.6372 13.3888 17.6372 13.7914 17.7555 14.1666H15.0001V11.4111C15.5788 11.5987 16.2123 11.4975 16.7038 11.1391C17.5656 10.5244 17.7659 9.32745 17.1512 8.46567C16.6658 7.78515 15.7953 7.4977 15.0001 7.75531V4.99984H24.1668V14.1665Z" fill="black"/>
<path d="M11.9863 3.58875C11.6111 3.47042 11.2086 3.47042 10.8333 3.58875V0.416667C10.8333 0.186563 10.6468 0 10.4167 0H0.416667C0.186563 0 0 0.186563 0 0.416667V10.4167C0 10.6468 0.186563 10.8333 0.416667 10.8333H3.58875C3.27037 11.8429 3.83068 12.9194 4.84021 13.2377C5.84974 13.5561 6.92625 12.9958 7.24459 11.9863C7.36292 11.611 7.36292 11.2085 7.24459 10.8333H10.4167C10.6468 10.8333 10.8333 10.6467 10.8333 10.4166V7.24454C11.8429 7.56292 12.9194 7.00261 13.2377 5.99308C13.5561 4.9836 12.9958 3.90714 11.9863 3.58875ZM11.7461 6.44625C11.5271 6.51792 11.291 6.51792 11.0721 6.44625L10.5483 6.27167C10.33 6.19896 10.0941 6.31698 10.0214 6.53532C10.0072 6.57766 10.0001 6.62204 10 6.66667V10H6.66667C6.43657 10.0002 6.25016 10.1869 6.25032 10.417C6.25037 10.4616 6.25756 10.506 6.27167 10.5483L6.44625 11.0721C6.6324 11.6407 6.3223 12.2526 5.75365 12.4387C5.185 12.6247 4.57318 12.3147 4.38709 11.746C4.31542 11.5271 4.31542 11.291 4.38709 11.072L4.56167 10.5483C4.63438 10.33 4.51636 10.094 4.29802 10.0213C4.25568 10.0072 4.21131 10 4.16667 9.99995H0.833334V0.833334H10V4.16667C10.0002 4.39677 10.1869 4.58318 10.417 4.58302C10.4616 4.58297 10.506 4.57578 10.5483 4.56167L11.0721 4.38709C11.6407 4.20099 12.2526 4.51104 12.4387 5.07969C12.6248 5.64828 12.3147 6.26016 11.7461 6.44625Z" fill="black"/>
</svg>
