<svg width="25" height="25" viewBox="0 0 25 25" fill="none" xmlns="http://www.w3.org/2000/svg">
<g clip-path="url(#clip0)">
<path d="M24.1671 17.0755V2.91538C24.1663 2.22562 23.6073 1.66664 22.9176 1.66588H15.0046V1.2495C15.0038 0.559741 14.4448 0.00076259 13.7553 0H11.2562C10.5667 0.00076259 10.0077 0.559741 10.0069 1.2495V1.66588H2.09392C1.40415 1.66664 0.845176 2.22562 0.844413 2.91538V17.0755C0.384572 17.0759 0.0118559 17.4486 0.0114746 17.9085V19.5743C0.0124278 20.494 0.757669 21.2393 1.67735 21.2402H4.57348L3.97484 22.3778C3.81947 22.6705 3.78687 23.0129 3.88429 23.3293C3.98171 23.646 4.20095 23.911 4.49398 24.0658L5.97073 24.8458C6.58119 25.1643 7.33443 24.9296 7.65587 24.3207L9.27942 21.2402H15.7239L17.3547 24.3314C17.6763 24.9418 18.4316 25.1771 19.0431 24.857L20.5168 24.0788C20.8098 23.9242 21.0292 23.6595 21.127 23.3429C21.2246 23.0264 21.1924 22.684 21.0374 22.3914L20.4304 21.2402H23.3341C24.2538 21.2393 24.9991 20.494 25 19.5743V17.9085C24.9996 17.4486 24.6269 17.0759 24.1671 17.0755ZM10.8399 1.2495C10.8401 1.01958 11.0265 0.83332 11.2562 0.832939H13.7553C13.985 0.83332 14.1714 1.01958 14.1716 1.2495V1.66588H10.8399V1.2495ZM1.67735 2.91538C1.67773 2.68546 1.864 2.4992 2.09392 2.49882H22.9176C23.1475 2.4992 23.3338 2.68546 23.3341 2.91538V17.0755H1.67735V2.91538ZM6.91787 23.9341C6.81054 24.1362 6.56022 24.2138 6.35737 24.1079L4.88233 23.3288C4.7851 23.2781 4.71246 23.1902 4.68081 23.0853C4.64783 22.9795 4.6587 22.8647 4.71132 22.7671L5.5147 21.2402H8.33781L6.91787 23.9341ZM20.3009 22.7805C20.3524 22.8777 20.3633 22.9915 20.3311 23.0968C20.2987 23.202 20.2258 23.2901 20.1286 23.3415L18.6562 24.119C18.5579 24.1709 18.4427 24.1815 18.3365 24.1487C18.2309 24.1163 18.143 24.0427 18.0927 23.9446L16.6657 21.2402H19.4886L20.3009 22.7805ZM24.1671 19.5743C24.1667 20.0342 23.794 20.4069 23.3341 20.4073H1.67735C1.21751 20.4069 0.844985 20.0342 0.844413 19.5743V17.9085H24.1671V19.5743Z" fill="black"/>
<path d="M4.1762 18.7415H3.75983C3.52971 18.7415 3.34326 18.9279 3.34326 19.158C3.34326 19.3879 3.52971 19.5744 3.75983 19.5744H4.1762C4.40631 19.5744 4.59276 19.3879 4.59276 19.158C4.59276 18.9279 4.40631 18.7415 4.1762 18.7415Z" fill="black"/>
<path d="M21.2517 18.7415H5.84222C5.61211 18.7415 5.42566 18.9279 5.42566 19.158C5.42566 19.3879 5.61211 19.5744 5.84222 19.5744H21.2517C21.4818 19.5744 21.6683 19.3879 21.6683 19.158C21.6683 18.9279 21.4818 18.7415 21.2517 18.7415Z" fill="black"/>
<path d="M22.5012 7.49654C22.5001 6.57686 21.7548 5.83162 20.8353 5.83047C20.4396 5.83219 20.0577 5.97594 19.7591 6.23541L18.2265 5.1613C18.2978 4.97618 18.335 4.77963 18.3365 4.58116C18.3365 3.6611 17.5905 2.91528 16.6705 2.91528C15.7504 2.91528 15.0046 3.6611 15.0046 4.58116C15.0061 4.77963 15.0435 4.97618 15.1148 5.1613L13.5822 6.23541C12.9662 5.6955 12.0457 5.6955 11.4297 6.23541L9.89713 5.1613C9.96844 4.97618 10.0056 4.77963 10.0069 4.58116C10.0069 3.6611 9.26113 2.91528 8.34107 2.91528C7.421 2.91528 6.67519 3.6611 6.67519 4.58116C6.67653 4.77963 6.71389 4.97618 6.7852 5.1613L5.25258 6.23541C4.95384 5.97575 4.57197 5.83219 4.17618 5.83047C3.33791 5.82876 2.62965 6.4516 2.52384 7.28302C2.41784 8.11462 2.94784 8.89494 3.75981 9.10332V10.471C3.09369 10.6386 2.59934 11.1989 2.51622 11.8809C2.4329 12.5626 2.77798 13.2255 3.38404 13.5485C3.9903 13.8714 4.73288 13.7881 5.25239 13.3387L6.785 14.4129C6.7137 14.598 6.67653 14.7945 6.67519 14.993C6.67519 15.9131 7.421 16.6589 8.34107 16.6589C9.26113 16.6589 10.0069 15.9131 10.0069 14.993C10.0054 14.7945 9.96806 14.598 9.89675 14.4129L11.4296 13.3387C12.0454 13.8787 12.9658 13.8787 13.5818 13.3387L15.1144 14.4129C15.0431 14.598 15.0059 14.7945 15.0046 14.993C15.0046 15.9131 15.7504 16.6589 16.6705 16.6589C17.5905 16.6589 18.3365 15.9131 18.3365 14.993C18.335 14.7945 18.2976 14.598 18.2263 14.4129L19.7589 13.3387C20.0577 13.5984 20.4396 13.742 20.8353 13.7437C21.6736 13.7454 22.3819 13.1226 22.4879 12.2911C22.5937 11.4595 22.0637 10.6792 21.2517 10.471V9.10332C21.9853 8.91439 22.4989 8.25398 22.5012 7.49654ZM20.8353 6.6636C21.2954 6.6636 21.6683 7.03651 21.6683 7.49654C21.6683 7.95657 21.2954 8.32948 20.8353 8.32948C20.3753 8.32948 20.0024 7.95657 20.0024 7.49654C20.0028 7.0367 20.3755 6.66398 20.8353 6.6636ZM19.1695 12.0776C19.1708 12.2761 19.2082 12.4726 19.2795 12.6579L17.7469 13.732C17.1309 13.1921 16.2104 13.1921 15.5946 13.732L14.062 12.6579C14.2317 12.2175 14.2041 11.7255 13.986 11.307C13.7678 10.8885 13.3805 10.5841 12.9223 10.471V9.10332C13.3805 8.99008 13.7677 8.68542 13.9858 8.26695C14.2039 7.84848 14.2315 7.35642 14.0616 6.91621L15.5943 5.8421C16.21 6.38202 17.1307 6.38202 17.7465 5.8421L19.2791 6.91621C19.1094 7.35661 19.1371 7.84867 19.3552 8.26714C19.5733 8.68561 19.9607 8.99027 20.4188 9.10332V10.471C19.6852 10.6598 19.1718 11.3202 19.1695 12.0776ZM10.8399 12.0776C10.8414 12.2761 10.8786 12.4726 10.9499 12.6579L9.41727 13.732C8.80148 13.1921 7.88085 13.1921 7.26505 13.732L5.73244 12.6579C5.90231 12.2175 5.87447 11.7255 5.65656 11.307C5.43846 10.8885 5.05087 10.5841 4.59275 10.471V9.10332C5.05087 8.99008 5.43827 8.68542 5.65618 8.26695C5.87428 7.84848 5.90193 7.35642 5.73206 6.91621L7.26467 5.8421C7.88066 6.38202 8.8011 6.38202 9.41689 5.8421L10.9497 6.91621C10.7798 7.35661 10.8075 7.84867 11.0256 8.26714C11.2437 8.68561 11.6311 8.99027 12.0894 9.10332V10.471C11.3558 10.6598 10.8422 11.3202 10.8399 12.0776ZM16.6705 3.74822C17.1305 3.74822 17.5034 4.12113 17.5034 4.58116C17.5034 5.04119 17.1305 5.4141 16.6705 5.4141C16.2104 5.4141 15.8375 5.04119 15.8375 4.58116C15.8381 4.12132 16.2106 3.7486 16.6705 3.74822ZM12.5058 6.6636C12.9658 6.6636 13.3387 7.03651 13.3387 7.49654C13.3387 7.95657 12.9658 8.32948 12.5058 8.32948C12.0457 8.32948 11.6728 7.95657 11.6728 7.49654C11.6732 7.0367 12.0459 6.66398 12.5058 6.6636ZM8.34107 3.74822C8.8011 3.74822 9.17401 4.12113 9.17401 4.58116C9.17401 5.04119 8.8011 5.4141 8.34107 5.4141C7.88104 5.4141 7.50813 5.04119 7.50813 4.58116C7.50851 4.12132 7.88123 3.7486 8.34107 3.74822ZM3.34325 7.49654C3.34325 7.03651 3.71615 6.6636 4.17618 6.6636C4.63622 6.6636 5.00912 7.03651 5.00912 7.49654C5.00912 7.95657 4.63622 8.32948 4.17618 8.32948C3.71634 8.32891 3.34382 7.95638 3.34325 7.49654ZM4.17618 12.9107C3.71615 12.9107 3.34325 12.5376 3.34325 12.0776C3.34325 11.6176 3.71615 11.2447 4.17618 11.2447C4.63622 11.2447 5.00912 11.6176 5.00912 12.0776C5.00874 12.5375 4.63603 12.9102 4.17618 12.9107ZM8.34107 15.8259C7.88104 15.8259 7.50813 15.453 7.50813 14.993C7.50813 14.533 7.88104 14.1601 8.34107 14.1601C8.8011 14.1601 9.17401 14.533 9.17401 14.993C9.17344 15.4528 8.80091 15.8256 8.34107 15.8259ZM12.5058 12.9107C12.0457 12.9107 11.6728 12.5376 11.6728 12.0776C11.6728 11.6176 12.0457 11.2447 12.5058 11.2447C12.9658 11.2447 13.3387 11.6176 13.3387 12.0776C13.3383 12.5375 12.9656 12.9102 12.5058 12.9107ZM16.6705 15.8259C16.2104 15.8259 15.8375 15.453 15.8375 14.993C15.8375 14.533 16.2104 14.1601 16.6705 14.1601C17.1305 14.1601 17.5034 14.533 17.5034 14.993C17.503 15.4528 17.1303 15.8256 16.6705 15.8259ZM21.6683 12.0776C21.6683 12.5376 21.2954 12.9107 20.8353 12.9107C20.3753 12.9107 20.0024 12.5376 20.0024 12.0776C20.0024 11.6176 20.3753 11.2447 20.8353 11.2447C21.2952 11.2452 21.6677 11.6178 21.6683 12.0776Z" fill="black"/>
</g>
<defs>
<clipPath id="clip0">
<rect width="25" height="25" fill="white"/>
</clipPath>
</defs>
</svg>
