<svg width="23" height="25" viewBox="0 0 23 25" fill="none" xmlns="http://www.w3.org/2000/svg">
<path d="M21.7266 25C21.498 25 21.2815 24.8637 21.1902 24.6388L20.9063 23.939C19.9358 21.5481 18.7941 20.528 17.0885 20.528H14.9185C14.2601 20.528 13.6938 20.6811 13.1874 20.9959C12.916 21.1647 12.5592 21.0814 12.3904 20.81C12.2217 20.5386 12.3049 20.1817 12.5763 20.0131C13.2619 19.5868 14.0499 19.3707 14.9184 19.3707H17.0883C19.9679 19.3707 21.2584 21.7295 21.9786 23.5039L22.2625 24.2037C22.3827 24.4999 22.24 24.8373 21.9439 24.9575C21.8727 24.9863 21.799 25 21.7266 25ZM12.025 25C11.7964 25 11.5799 24.8637 11.4886 24.6388L11.2047 23.939C10.2343 21.5481 9.09258 20.528 7.38685 20.528H5.21681C3.51108 20.528 2.36924 21.5482 1.39891 23.9391L1.115 24.6388C0.994786 24.935 0.657284 25.0773 0.361229 24.9574C0.0651011 24.8373 -0.0775379 24.4998 0.0426058 24.2036L0.326509 23.5039C1.04665 21.7295 2.33705 19.3706 5.21681 19.3706H7.38677C10.2667 19.3706 11.5571 21.7294 12.2771 23.5038L12.5611 24.2036C12.6812 24.4998 12.5385 24.8373 12.2424 24.9574C12.1711 24.9863 12.0974 25 12.025 25ZM16.0032 18.2555C14.212 18.2555 12.7548 16.7982 12.7548 15.0069C12.7548 13.5321 13.7425 12.2837 15.0912 11.8886C15.0985 11.8863 15.1057 11.8841 15.1131 11.8819C15.4018 11.7998 15.7014 11.7582 16.0033 11.7582C17.6597 11.7582 19.0351 12.9836 19.229 14.6195C19.2442 14.7466 19.2519 14.8758 19.2519 15.0069C19.2518 16.7981 17.7946 18.2555 16.0032 18.2555ZM14.8626 13.2548C14.2908 13.6284 13.9121 14.2743 13.9121 15.0069C13.9121 16.16 14.8501 17.0982 16.0032 17.0982C17.0154 17.0982 17.8619 16.3754 18.0538 15.4189C18.0119 15.4205 17.97 15.4213 17.928 15.4213C16.5162 15.4213 15.3084 14.5308 14.8626 13.2548ZM15.9713 12.9158C16.2707 13.7122 17.0361 14.264 17.928 14.264C17.9381 14.264 17.9481 14.2639 17.9582 14.2637C17.6542 13.467 16.8748 12.9043 15.9713 12.9158ZM6.30172 18.2555C4.51049 18.2555 3.05314 16.7982 3.05314 15.0069C3.05314 13.2194 4.50427 11.7645 6.29029 11.7583C6.29847 11.7582 6.30671 11.7582 6.31489 11.7582C7.99299 11.7582 9.38271 13.0161 9.54748 14.6841C9.55196 14.7301 9.55102 14.7756 9.54495 14.8198C9.54849 14.8817 9.5503 14.9442 9.5503 15.0069C9.5503 16.7981 8.09295 18.2555 6.30172 18.2555ZM5.17175 13.2478C4.59389 13.6203 4.21045 14.2697 4.21045 15.0068C4.21045 16.1599 5.1486 17.0981 6.30172 17.0981C7.31365 17.0981 8.16008 16.3756 8.35212 15.4193C8.31465 15.4206 8.27711 15.4212 8.23957 15.4212C6.82519 15.4213 5.61565 14.5275 5.17175 13.2478ZM6.28284 12.9158C6.5823 13.7122 7.34764 14.264 8.23957 14.264C8.24529 14.264 8.251 14.264 8.25664 14.264C7.95639 13.4766 7.19329 12.9156 6.30172 12.9156C6.29543 12.9157 6.28913 12.9156 6.28284 12.9158ZM15.6756 10.7435C15.4883 10.7435 15.3047 10.6528 15.1932 10.4853C14.4147 9.31479 13.4756 8.76969 12.2378 8.76969H10.0676C8.82973 8.76969 7.89057 9.31479 7.11206 10.4853C6.93499 10.7514 6.57571 10.8236 6.30975 10.6466C6.04364 10.4696 5.97145 10.1104 6.14845 9.84426C7.13354 8.36326 8.45215 7.61238 10.0676 7.61238H12.2375C13.8532 7.61238 15.1717 8.36333 16.1569 9.84426C16.3339 10.1104 16.2616 10.4696 15.9956 10.6466C15.897 10.7122 15.7856 10.7435 15.6756 10.7435ZM11.1525 6.49723C9.36137 6.49723 7.90409 5.03996 7.90409 3.24865C7.90409 1.45727 9.36137 0 11.1525 0C11.1569 0 11.1614 0 11.1657 0C12.8437 0 14.2335 1.25786 14.3984 2.92583C14.4029 2.97191 14.4019 3.01741 14.3959 3.0616C14.3994 3.12345 14.4012 3.18594 14.4012 3.24865C14.4012 5.03996 12.9438 6.49723 11.1525 6.49723ZM10.0226 1.48961C9.44484 1.86212 9.06141 2.51152 9.06141 3.24865C9.06141 4.40177 9.99948 5.33992 11.1525 5.33992C12.1646 5.33992 13.011 4.61739 13.2031 3.66109C13.1655 3.66239 13.128 3.66297 13.0903 3.66297C11.676 3.66304 10.4665 2.76923 10.0226 1.48961ZM11.1337 1.15753C11.4331 1.95398 12.1984 2.50573 13.0902 2.50573C13.0959 2.50573 13.1017 2.50573 13.1074 2.50566C12.8079 1.72006 12.0479 1.16006 11.1591 1.15731C11.1506 1.15739 11.1422 1.15746 11.1337 1.15753Z" fill="black"/>
</svg>
