<?xml version="1.0" encoding="iso-8859-1"?>
<!-- Generator: Adobe Illustrator 19.0.0, SVG Export Plug-In . SVG Version: 6.00 Build 0)  -->
<svg version="1.1" id="Capa_1" xmlns="http://www.w3.org/2000/svg" xmlns:xlink="http://www.w3.org/1999/xlink" x="0px" y="0px"
	 viewBox="0 0 512 512" style="enable-background:new 0 0 512 512;" xml:space="preserve">
<polygon style="fill:#4DB5FF;" points="503.467,89.6 469.333,89.6 469.333,55.467 435.2,55.467 435.2,89.6 401.067,89.6 
	401.067,123.733 435.2,123.733 435.2,157.867 469.333,157.867 469.333,123.733 503.467,123.733 "/>
<path style="fill:#FFD4B0;" d="M187.733,12.8L187.733,12.8c98.97,0,179.2,80.23,179.2,179.2v102.4h-51.2v102.4
	c0,28.279-22.921,51.2-51.2,51.2H153.6v51.2H8.533V192C8.533,93.03,88.764,12.8,187.733,12.8z"/>
<path style="fill:#EDC4A2;" d="M8.533,430.933V499.2H153.6V448h110.933c28.279,0,51.2-22.921,51.2-51.2V294.4h51.2V192
	c0-2.159-0.247-4.267-0.324-6.383C309.333,333.466,167.091,430.916,8.533,430.933z"/>
<g>
	<path style="fill:#FFA511;" d="M179.2,98.133c-4.71,0-8.533-3.823-8.533-8.533V72.533c0-4.71,3.823-8.533,8.533-8.533
		s8.533,3.823,8.533,8.533V89.6C187.733,94.31,183.91,98.133,179.2,98.133z"/>
	<path style="fill:#FFA511;" d="M108.988,120.951c-2.731,0-5.308-1.306-6.912-3.516l-10.035-13.807
		c-2.56-3.959-1.434-9.242,2.526-11.802c3.652-2.364,8.499-1.604,11.247,1.766l10.035,13.807c2.773,3.814,1.929,9.148-1.886,11.921
		c-1.459,1.058-3.209,1.63-5.009,1.63H108.988z"/>
	<path style="fill:#FFA511;" d="M65.579,180.685c-0.896,0-1.783-0.145-2.637-0.418l-16.213-5.274
		c-4.412-1.655-6.647-6.579-4.983-10.991c1.553-4.13,6.007-6.4,10.257-5.222l16.213,5.282c4.48,1.459,6.938,6.272,5.478,10.752
		c-1.143,3.516-4.42,5.897-8.115,5.897V180.685z"/>
	<path style="fill:#FFA511;" d="M249.412,120.951c-4.71,0-8.533-3.831-8.525-8.542c0-1.801,0.572-3.55,1.63-5.009l10.069-13.807
		c2.773-3.814,8.107-4.659,11.921-1.886s4.659,8.107,1.886,11.921l-10.035,13.807C254.746,119.654,252.16,120.969,249.412,120.951z"
		/>
	<path style="fill:#FFA511;" d="M292.821,180.685c-4.71,0-8.533-3.823-8.533-8.533c0-3.695,2.381-6.972,5.897-8.115l16.213-5.282
		c4.54-1.254,9.242,1.408,10.496,5.956c1.178,4.258-1.092,8.704-5.222,10.257l-16.213,5.274
		C294.605,180.523,293.717,180.676,292.821,180.685z"/>
</g>
<path style="fill:#FFDC13;" d="M264.533,209.067c0.068-47.13-38.084-85.385-85.214-85.453c-47.13-0.068-85.385,38.084-85.453,85.214
	c-0.034,26.897,12.612,52.241,34.133,68.386v34.253h102.4v-34.253C251.887,261.146,264.533,235.895,264.533,209.067z"/>
<path style="fill:#E5AF17;" d="M128,284.954v26.513h102.4v-34.253c28.535-21.299,40.755-58.138,30.618-92.271
	C238.464,240.222,187.366,278.639,128,284.954z"/>
<path style="fill:#FFA511;" d="M136.533,311.467h85.333c9.429,0,17.067,7.637,17.067,17.067l0,0c0,9.429-7.637,17.067-17.067,17.067
	h-85.333c-9.429,0-17.067-7.637-17.067-17.067l0,0C119.467,319.104,127.104,311.467,136.533,311.467z"/>
<path style="fill:#F08015;" d="M229.154,313.173c-33.186,15.462-69.043,24.405-105.609,26.334c3.217,3.849,7.97,6.084,12.988,6.093
	h85.333c9.429-0.085,16.998-7.791,16.913-17.22C238.729,321.894,234.991,315.998,229.154,313.173z"/>
<path style="fill:#FFA511;" d="M153.6,345.6h51.2c9.429,0,17.067,7.637,17.067,17.067l0,0c0,9.429-7.637,17.067-17.067,17.067h-51.2
	c-9.429,0-17.067-7.637-17.067-17.067l0,0C136.533,353.237,144.171,345.6,153.6,345.6z"/>
<path style="fill:#F08015;" d="M141.713,374.878c3.174,3.115,7.441,4.855,11.887,4.855h51.2c9.378,0.051,17.024-7.518,17.067-16.896
	c0.017-3.9-1.306-7.689-3.746-10.726C193.664,362.761,168.004,370.406,141.713,374.878z"/>
<path style="fill:#3596D8;" d="M401.067,123.733H435.2v34.133h34.133v-34.133h34.133V89.6h-22.468
	C460.134,111.411,431.258,123.75,401.067,123.733z"/>
<polygon style="fill:#4DB5FF;" points="503.467,243.2 469.333,243.2 469.333,209.067 435.2,209.067 435.2,243.2 401.067,243.2 
	401.067,277.333 435.2,277.333 435.2,311.467 469.333,311.467 469.333,277.333 503.467,277.333 "/>
<path style="fill:#3596D8;" d="M401.067,277.333H435.2v34.133h34.133v-34.133h34.133V243.2h-22.468
	C460.134,265.011,431.258,277.35,401.067,277.333z"/>
<polygon style="fill:#4DB5FF;" points="503.467,396.8 469.333,396.8 469.333,362.667 435.2,362.667 435.2,396.8 401.067,396.8 
	401.067,430.933 435.2,430.933 435.2,465.067 469.333,465.067 469.333,430.933 503.467,430.933 "/>
<path style="fill:#3596D8;" d="M401.067,430.933H435.2v34.133h34.133v-34.133h34.133V396.8h-22.468
	C460.134,418.611,431.258,430.95,401.067,430.933z"/>
<path d="M162.133,499.2v-42.667h102.4c32.973-0.034,59.699-26.761,59.733-59.733v-93.867h42.667c4.71,0,8.533-3.823,8.533-8.533V192
	c0-103.68-84.053-187.733-187.733-187.733S0,88.32,0,192v307.2c0,4.71,3.823,8.533,8.533,8.533H153.6
	C158.31,507.733,162.133,503.91,162.133,499.2z M145.067,448v42.667h-128V192c0-94.259,76.407-170.667,170.667-170.667
	S358.4,97.741,358.4,192v93.867h-42.667c-4.71,0-8.533,3.823-8.533,8.533v102.4c-0.026,23.552-19.115,42.641-42.667,42.667H153.6
	C148.89,439.467,145.067,443.29,145.067,448z"/>
<path d="M204.8,388.267c14.089,0.051,25.557-11.341,25.6-25.429c0.009-3.319-0.623-6.613-1.877-9.694
	c13.568-3.558,21.675-17.442,18.116-31.01c-1.271-4.847-3.951-9.216-7.706-12.544v-28.228
	c21.683-17.732,34.219-44.288,34.133-72.294c0-51.84-42.027-93.867-93.867-93.867s-93.867,42.027-93.867,93.867
	c-0.085,28.006,12.45,54.562,34.133,72.294v28.228c-10.47,9.327-11.401,25.378-2.074,35.857c3.319,3.729,7.663,6.391,12.484,7.663
	c-5.325,13.047,0.93,27.938,13.978,33.263c3.089,1.263,6.4,1.903,9.745,1.894L204.8,388.267L204.8,388.267z M133.12,270.404
	c-33.929-25.446-40.806-73.591-15.36-107.52s73.591-40.806,107.52-15.36s40.806,73.591,15.36,107.52
	c-4.369,5.82-9.54,10.991-15.36,15.36c-2.15,1.613-3.413,4.139-3.413,6.827v25.702h-85.333v-25.719
	C136.525,274.534,135.262,272.009,133.12,270.404z M136.533,320h85.333c4.71,0,8.533,3.823,8.533,8.533s-3.823,8.533-8.533,8.533
	h-85.333c-4.71,0-8.533-3.823-8.533-8.533S131.823,320,136.533,320z M145.067,362.667c0-4.71,3.823-8.533,8.533-8.533h51.2
	c4.71,0,8.533,3.823,8.533,8.533s-3.823,8.533-8.533,8.533h-51.2C148.89,371.2,145.067,367.377,145.067,362.667z"/>
<path d="M503.467,81.067h-25.6v-25.6c0-4.71-3.823-8.533-8.533-8.533H435.2c-4.71,0-8.533,3.823-8.533,8.533v25.6h-25.6
	c-4.71,0-8.533,3.823-8.533,8.533v34.133c0,4.71,3.823,8.533,8.533,8.533h25.6v25.6c0,4.71,3.823,8.533,8.533,8.533h34.133
	c4.71,0,8.533-3.823,8.533-8.533v-25.6h25.6c4.71,0,8.533-3.823,8.533-8.533V89.6C512,84.89,508.177,81.067,503.467,81.067z
	 M494.933,115.2h-25.6c-4.71,0-8.533,3.823-8.533,8.533v25.6h-17.067v-25.6c0-4.71-3.823-8.533-8.533-8.533h-25.6V98.133h25.6
	c4.71,0,8.533-3.823,8.533-8.533V64H460.8v25.6c0,4.71,3.823,8.533,8.533,8.533h25.6V115.2z"/>
<path d="M503.467,234.667h-25.6v-25.6c0-4.71-3.823-8.533-8.533-8.533H435.2c-4.71,0-8.533,3.823-8.533,8.533v25.6h-25.6
	c-4.71,0-8.533,3.823-8.533,8.533v34.133c0,4.71,3.823,8.533,8.533,8.533h25.6v25.6c0,4.71,3.823,8.533,8.533,8.533h34.133
	c4.71,0,8.533-3.823,8.533-8.533v-25.6h25.6c4.71,0,8.533-3.823,8.533-8.533V243.2C512,238.49,508.177,234.667,503.467,234.667z
	 M494.933,268.8h-25.6c-4.71,0-8.533,3.823-8.533,8.533v25.6h-17.067v-25.6c0-4.71-3.823-8.533-8.533-8.533h-25.6v-17.067h25.6
	c4.71,0,8.533-3.823,8.533-8.533v-25.6H460.8v25.6c0,4.71,3.823,8.533,8.533,8.533h25.6V268.8z"/>
<path d="M503.467,388.267h-25.6v-25.6c0-4.71-3.823-8.533-8.533-8.533H435.2c-4.71,0-8.533,3.823-8.533,8.533v25.6h-25.6
	c-4.71,0-8.533,3.823-8.533,8.533v34.133c0,4.71,3.823,8.533,8.533,8.533h25.6v25.6c0,4.71,3.823,8.533,8.533,8.533h34.133
	c4.71,0,8.533-3.823,8.533-8.533v-25.6h25.6c4.71,0,8.533-3.823,8.533-8.533V396.8C512,392.09,508.177,388.267,503.467,388.267z
	 M494.933,422.4h-25.6c-4.71,0-8.533,3.823-8.533,8.533v25.6h-17.067v-25.6c0-4.71-3.823-8.533-8.533-8.533h-25.6v-17.067h25.6
	c4.71,0,8.533-3.823,8.533-8.533v-25.6H460.8v25.6c0,4.71,3.823,8.533,8.533,8.533h25.6V422.4z"/>
<g>
</g>
<g>
</g>
<g>
</g>
<g>
</g>
<g>
</g>
<g>
</g>
<g>
</g>
<g>
</g>
<g>
</g>
<g>
</g>
<g>
</g>
<g>
</g>
<g>
</g>
<g>
</g>
<g>
</g>
</svg>
