<?xml version="1.0" encoding="iso-8859-1"?>
<!-- Generator: Adobe Illustrator 19.0.0, SVG Export Plug-In . SVG Version: 6.00 Build 0)  -->
<svg version="1.1" id="Capa_1" xmlns="http://www.w3.org/2000/svg" xmlns:xlink="http://www.w3.org/1999/xlink" x="0px" y="0px"
	 viewBox="0 0 512 512" style="enable-background:new 0 0 512 512;" xml:space="preserve">
<polygon style="fill:#EF2648;" points="401.067,145.067 349.867,196.267 315.733,196.267 315.733,247.467 375.467,247.467 
	418.133,204.8 418.133,307.2 503.467,307.2 503.467,145.067 "/>
<g>
	<path style="fill:#FFD4B0;" d="M290.133,196.267c-14.14,0-25.6,11.46-25.6,25.6c0,14.14,11.46,25.6,25.6,25.6h25.6v-51.2H290.133z"
		/>
	<path style="fill:#FFD4B0;" d="M221.867,196.267h-25.6v51.2h25.6c14.14,0,25.6-11.46,25.6-25.6
		C247.467,207.727,236.006,196.267,221.867,196.267z"/>
</g>
<polygon style="fill:#4DB5FF;" points="162.133,196.267 110.933,145.067 8.533,145.067 8.533,307.2 93.867,307.2 93.867,204.8 
	136.533,247.467 196.267,247.467 196.267,196.267 "/>
<path style="fill:#FFD4B0;" d="M19.797,82.859c8.004,22.11,32.418,33.545,54.519,25.54c16.887-6.118,28.126-22.17,28.083-40.132
	V51.2h-2.927C69.854,51.234,41.361,62.558,19.797,82.859z"/>
<path style="fill:#FFA511;" d="M59.733,25.6c-23.561,0-42.667,19.106-42.667,42.667c0.043,4.983,0.964,9.924,2.731,14.592
	C41.361,62.558,69.854,51.234,99.473,51.2h2.927V25.6H59.733z"/>
<path style="fill:#FFD4B0;" d="M409.6,51.2v17.067c-0.051,23.509,18.961,42.615,42.47,42.675
	c17.963,0.043,34.014-11.196,40.132-28.083c-21.564-20.301-50.057-31.625-79.676-31.659H409.6z"/>
<path style="fill:#FFA511;" d="M452.267,25.6H409.6v25.6h2.927c29.619,0.034,58.112,11.358,79.676,31.659
	c1.766-4.668,2.688-9.609,2.731-14.592C494.933,44.706,475.827,25.6,452.267,25.6z"/>
<g>
	<path style="fill:#235087;" d="M8.533,324.267c0,18.85,15.283,34.133,34.133,34.133h51.2c9.429,0,17.067,7.637,17.067,17.067
		v93.867c0,9.429,7.637,17.067,17.067,17.067h17.067c9.429,0,17.067-7.637,17.067-17.067V358.4c0-28.279-22.921-51.2-51.2-51.2
		H8.533V324.267z"/>
	<path style="fill:#235087;" d="M256,494.933c-4.71,0-8.533-3.823-8.533-8.533V281.6c0-4.71,3.823-8.533,8.533-8.533
		c4.71,0,8.533,3.823,8.533,8.533v204.8C264.533,491.11,260.71,494.933,256,494.933z"/>
</g>
<path style="fill:#8994A3;" d="M358.4,290.133H153.6c-4.71,0-8.533-3.823-8.533-8.533s3.823-8.533,8.533-8.533h204.8
	c4.71,0,8.533,3.823,8.533,8.533S363.11,290.133,358.4,290.133z"/>
<path style="fill:#235087;" d="M290.133,494.933h-68.267c-4.71,0-8.533-3.823-8.533-8.533s3.823-8.533,8.533-8.533h68.267
	c4.71,0,8.533,3.823,8.533,8.533S294.844,494.933,290.133,494.933z"/>
<g>
	<path style="fill:#163768;" d="M401.067,307.2c-28.279,0-51.2,22.921-51.2,51.2v110.933c0,9.429,7.637,17.067,17.067,17.067H384
		c9.429,0,17.067-7.637,17.067-17.067v-93.867c0-9.429,7.637-17.067,17.067-17.067h51.2c18.85,0,34.133-15.283,34.133-34.133V307.2
		H401.067z"/>
	<path style="fill:#163768;" d="M28.16,355.029c4.523,2.185,9.481,3.337,14.507,3.371h51.2c9.429,0,17.067,7.637,17.067,17.067
		v93.867c0,9.429,7.637,17.067,17.067,17.067h17.067c9.429,0,17.067-7.637,17.067-17.067V358.4c0-8.038-1.911-15.957-5.564-23.117
		C114.278,344.823,71.364,351.42,28.16,355.029z"/>
</g>
<path style="fill:#B20D24;" d="M418.133,232.789V307.2h85.333V176.99C476.058,197.12,447.565,215.748,418.133,232.789z"/>
<path style="fill:#EDC4A2;" d="M443.733,102.4c-9.216-0.026-18.167-3.055-25.498-8.636c13.926,18.816,40.465,22.784,59.281,8.858
	c6.741-4.992,11.853-11.87,14.686-19.763c-2.842-2.654-5.794-5.154-8.858-7.492C476.954,91.657,461.235,102.383,443.733,102.4z"/>
<path style="fill:#F08015;" d="M477.764,34.236c9.011,11.75,11.136,27.401,5.581,41.131c3.063,2.347,6.016,4.838,8.858,7.492
	c6.699-17.613,0.785-37.53-14.438-48.64L477.764,34.236z"/>
<path style="fill:#EDC4A2;" d="M93.867,51.465v8.269c0,23.561-19.106,42.667-42.667,42.667c-9.19,0-18.133-3.021-25.446-8.593
	c14.037,18.833,40.687,22.724,59.529,8.687c10.803-8.055,17.152-20.753,17.118-34.227V51.2h-2.927
	C97.596,51.2,95.735,51.379,93.867,51.465z"/>
<path style="fill:#F08015;" d="M93.867,25.6v25.865c1.869-0.085,3.729-0.265,5.606-0.265h2.927V25.6H93.867z"/>
<path style="fill:#EDC4A2;" d="M196.267,230.4v17.067h25.6c10.82-0.017,20.446-6.861,24.03-17.067H196.267z"/>
<polygon style="fill:#3596D8;" points="119.467,230.4 136.533,247.467 196.267,247.467 196.267,230.4 "/>
<polygon style="fill:#B20D24;" points="315.733,247.467 375.467,247.467 392.533,230.4 315.733,230.4 "/>
<path style="fill:#EDC4A2;" d="M266.103,230.4c3.584,10.206,13.21,17.05,24.03,17.067h25.6V230.4H266.103z"/>
<path d="M221.867,187.733h-56.201l-48.7-48.7c-1.596-1.604-3.772-2.5-6.033-2.5H8.533c-4.71,0-8.533,3.823-8.533,8.533v179.2
	c0.026,23.552,19.115,42.641,42.667,42.667h51.2c4.71,0,8.533,3.823,8.533,8.533v93.867c0,14.14,11.46,25.6,25.6,25.6h17.067
	c14.14,0,25.6-11.46,25.6-25.6V358.4c-0.034-32.973-26.761-59.699-59.733-59.733H102.4v-73.267l28.1,28.1
	c1.596,1.604,3.772,2.5,6.033,2.5h85.333c18.85,0,34.133-15.283,34.133-34.133S240.717,187.733,221.867,187.733z M221.867,238.933
	h-81.801L99.9,198.767c-3.337-3.328-8.738-3.328-12.066,0c-1.604,1.604-2.5,3.772-2.5,6.033v102.4c0,4.71,3.823,8.533,8.533,8.533
	h17.067c23.552,0.026,42.641,19.115,42.667,42.667v110.933c0,4.71-3.823,8.533-8.533,8.533H128c-4.71,0-8.533-3.823-8.533-8.533
	v-93.867c0-14.14-11.46-25.6-25.6-25.6h-51.2c-14.14,0-25.6-11.46-25.6-25.6V153.6h90.334l48.7,48.7
	c1.596,1.604,3.772,2.5,6.033,2.5h59.733c9.429,0,17.067,7.637,17.067,17.067C238.933,231.296,231.296,238.933,221.867,238.933z"/>
<path d="M503.467,136.533h-102.4c-2.261,0-4.437,0.896-6.033,2.5l-48.7,48.7h-56.201c-18.85,0-34.133,15.283-34.133,34.133
	S271.283,256,290.133,256h85.333c2.261,0,4.437-0.896,6.033-2.5l28.1-28.1v73.267h-8.533c-32.973,0.034-59.699,26.761-59.733,59.733
	v110.933c0,14.14,11.46,25.6,25.6,25.6H384c14.14,0,25.6-11.46,25.6-25.6v-93.867c0-4.71,3.823-8.533,8.533-8.533h51.2
	c23.552-0.026,42.641-19.115,42.667-42.667v-179.2C512,140.356,508.177,136.533,503.467,136.533z M494.933,324.267
	c0,14.14-11.46,25.6-25.6,25.6h-51.2c-14.14,0-25.6,11.46-25.6,25.6v93.867c0,4.71-3.823,8.533-8.533,8.533h-17.067
	c-4.71,0-8.533-3.823-8.533-8.533V358.4c0.026-23.552,19.115-42.641,42.667-42.667h17.067c4.71,0,8.533-3.823,8.533-8.533V204.8
	c0-4.71-3.823-8.533-8.533-8.533c-2.261,0-4.429,0.896-6.033,2.5l-40.166,40.166h-81.801c-9.429,0-17.067-7.637-17.067-17.067
	c0-9.429,7.637-17.067,17.067-17.067h59.733c2.261,0,4.437-0.896,6.033-2.5l48.7-48.7h90.334V324.267z"/>
<path d="M503.467,68.267c-0.026-28.262-22.938-51.174-51.2-51.2H409.6c-4.71,0-8.533,3.823-8.533,8.533v42.667
	c0,28.279,22.921,51.2,51.2,51.2S503.467,96.546,503.467,68.267z M452.267,34.133c18.261,0.06,33.237,14.481,33.988,32.725
	c-19.823-14.566-43.546-22.895-68.122-23.919v-8.806H452.267z M418.133,68.267v-8.26c23.398,1.118,45.79,9.89,63.718,24.969
	c-9.173,16.401-29.901,22.263-46.302,13.09C424.764,92.032,418.099,80.623,418.133,68.267z"/>
<path d="M59.733,119.467c28.262-0.026,51.174-22.938,51.2-51.2V25.6c0-4.71-3.823-8.533-8.533-8.533H59.733
	c-28.279,0-51.2,22.921-51.2,51.2S31.454,119.467,59.733,119.467z M59.733,102.4c-12.279-0.043-23.586-6.707-29.585-17.425
	c17.929-15.078,40.32-23.851,63.718-24.969v8.26C93.867,87.117,78.583,102.4,59.733,102.4z M59.733,34.133h34.133v8.806
	c-24.576,1.015-48.29,9.335-68.122,23.893C26.513,48.597,41.481,34.193,59.733,34.133z"/>
<g>
</g>
<g>
</g>
<g>
</g>
<g>
</g>
<g>
</g>
<g>
</g>
<g>
</g>
<g>
</g>
<g>
</g>
<g>
</g>
<g>
</g>
<g>
</g>
<g>
</g>
<g>
</g>
<g>
</g>
</svg>
