<?xml version="1.0" encoding="iso-8859-1"?>
<!-- Generator: Adobe Illustrator 19.0.0, SVG Export Plug-In . SVG Version: 6.00 Build 0)  -->
<svg version="1.1" id="Capa_1" xmlns="http://www.w3.org/2000/svg" xmlns:xlink="http://www.w3.org/1999/xlink" x="0px" y="0px"
	 viewBox="0 0 512 512" style="enable-background:new 0 0 512 512;" xml:space="preserve">
<path style="fill:#FFA511;" d="M68.267,8.533C35.337,8.474,8.593,35.132,8.533,68.062c-0.009,7.467,1.374,14.865,4.096,21.82
	C43.418,59.648,84.847,42.692,128,42.667V8.533H68.267z"/>
<path style="fill:#FFD4B0;" d="M68.267,128C101.257,128,128,101.257,128,68.267v-25.6C84.847,42.692,43.418,59.648,12.629,89.882
	C21.547,112.845,43.64,127.983,68.267,128z"/>
<path style="fill:#235087;" d="M8.533,503.467h51.2l0,0H128c9.429,0,17.067-7.637,17.067-17.067s-7.637-17.067-17.067-17.067
	h-17.067V307.2H8.533V503.467z"/>
<path style="fill:#EF2648;" d="M256,119.467l26.453,79.36c4.002,12.015,16.998,18.517,29.013,14.507
	c0.427-0.145,0.845-0.299,1.263-0.461l0,0c11.273-4.514,17.084-17.033,13.244-28.553l-27.307-81.92L256,119.467z"/>
<path style="fill:#B20D24;" d="M285.867,145.067c11.383-0.009,22.383,4.147,30.916,11.682L298.667,102.4L256,119.467l10.018,30.046
	C272.23,146.586,279.006,145.075,285.867,145.067z"/>
<path style="fill:#EF2648;" d="M418.133,51.2L418.133,51.2c18.85,0,34.133,15.283,34.133,34.133l0,0
	c0,18.85-15.283,34.133-34.133,34.133l0,0V51.2z"/>
<rect x="110.933" y="187.733" style="fill:#4DB5FF;" width="42.667" height="51.2"/>
<path style="fill:#EDC4A2;" d="M256,187.733H153.6v51.2H256c14.14,0,25.6-11.46,25.6-25.6C281.6,199.194,270.14,187.733,256,187.733
	z"/>
<g>
	<path style="fill:#FFDC13;" d="M281.6,42.667h-17.067c-23.561,0-42.667,19.106-42.667,42.667l0,0
		c0,23.561,19.106,42.667,42.667,42.667H281.6V42.667z"/>
	<path style="fill:#FFDC13;" d="M503.467,93.867H486.4c-4.71,0-8.533-3.823-8.533-8.533c0-4.71,3.823-8.533,8.533-8.533h17.067
		c4.71,0,8.533,3.823,8.533,8.533C512,90.044,508.177,93.867,503.467,93.867z"/>
	<path style="fill:#FFDC13;" d="M466.407,45.594c-4.71,0-8.533-3.823-8.533-8.533c0-2.261,0.896-4.429,2.5-6.033l12.066-12.066
		c3.277-3.388,8.678-3.482,12.066-0.213c3.388,3.277,3.482,8.678,0.213,12.066c-0.068,0.068-0.137,0.137-0.213,0.213L472.44,43.093
		C470.844,44.698,468.668,45.594,466.407,45.594z"/>
	<path style="fill:#FFDC13;" d="M478.473,154.206c-2.261,0-4.437-0.896-6.033-2.5l-12.066-12.066
		c-3.388-3.277-3.482-8.678-0.213-12.066c3.277-3.388,8.678-3.482,12.066-0.213c0.068,0.068,0.145,0.137,0.213,0.213l12.066,12.066
		c3.328,3.337,3.328,8.738,0,12.066C482.901,153.31,480.734,154.206,478.473,154.206z"/>
</g>
<path style="fill:#FFD4B0;" d="M247.467,153.6h-102.4v51.2h102.4c14.14,0,25.6-11.46,25.6-25.6
	C273.067,165.06,261.606,153.6,247.467,153.6z"/>
<path style="fill:#B7E5FF;" d="M42.667,153.6c-18.85,0-34.133,15.283-34.133,34.133V307.2h102.4V204.8h34.133v-51.2H42.667z"/>
<path style="fill:#B20D24;" d="M418.133,51.2v68.267c12.083-0.026,23.253-6.468,29.321-16.922
	C429.286,91.819,418.142,72.294,418.133,51.2z"/>
<polygon style="fill:#FFA511;" points="418.133,8.533 418.133,162.133 281.6,128 281.6,42.667 "/>
<path style="fill:#F08015;" d="M327.33,139.426l90.803,22.707V86.11C393.583,112.196,362.069,130.697,327.33,139.426z"/>
<g>
	<path style="fill:#163768;" d="M8.533,397.44v106.027h51.2V360.96C47.352,378.633,29.278,391.509,8.533,397.44z"/>
	<path style="fill:#163768;" d="M128,469.333h-9.207c-12.169,21.111-34.688,34.125-59.059,34.133H128
		c9.429,0,17.067-7.637,17.067-17.067S137.429,469.333,128,469.333z"/>
</g>
<path style="fill:#FFA511;" d="M11.213,85.709c0.435,1.408,0.853,2.807,1.417,4.173c0.316-0.316,0.674-0.58,0.998-0.853
	C12.8,87.945,12.006,86.818,11.213,85.709z"/>
<path style="fill:#F08015;" d="M119.467,8.533v34.551c2.842-0.145,5.675-0.418,8.533-0.418V8.533H119.467z"/>
<path style="fill:#EDC4A2;" d="M119.467,51.2c0.043,32.93-26.624,59.665-59.563,59.699c-17.929,0.026-34.91-8.021-46.251-21.905
	c-0.324,0.307-0.683,0.572-0.998,0.853c12.041,30.711,46.703,45.85,77.414,33.809c22.801-8.943,37.837-30.899,37.931-55.39v-25.6
	c-2.859,0-5.692,0.273-8.533,0.418V51.2z"/>
<path d="M460.8,85.333c-0.026-20.267-14.285-37.734-34.133-41.813V8.533c0-4.71-3.823-8.533-8.533-8.533
	c-0.7,0-1.399,0.085-2.074,0.256L280.559,34.133h-16.026c-28.279,0.119-51.106,23.142-50.987,51.413
	c0.102,23.347,15.983,43.674,38.622,49.417l3.772,11.298c-2.765-0.759-5.606-1.161-8.474-1.195h-204.8
	C19.115,145.092,0.026,164.181,0,187.733v315.733C0,508.177,3.823,512,8.533,512H128c14.14,0,25.6-11.46,25.6-25.6
	s-11.46-25.6-25.6-25.6h-8.533V247.467H256c16.546-0.043,30.677-11.938,33.536-28.237c0.495,0.265,0.922,0.614,1.425,0.853
	c15.77,7.313,34.475,0.461,41.788-15.309c3.379-7.287,3.84-15.582,1.306-23.202l-11.494-34.543l93.517,23.381
	c4.574,1.135,9.199-1.655,10.342-6.229c0.162-0.666,0.247-1.357,0.247-2.048v-34.987C446.515,123.068,460.775,105.6,460.8,85.333z
	 M230.4,85.333c0-18.85,15.283-34.133,34.133-34.133h8.533v68.267h-8.533C245.683,119.467,230.4,104.184,230.4,85.333z M128,477.867
	c4.71,0,8.533,3.823,8.533,8.533s-3.823,8.533-8.533,8.533H68.267V349.867c0-4.71-3.823-8.533-8.533-8.533s-8.533,3.823-8.533,8.533
	v145.067H17.067v-307.2c0-14.14,11.46-25.6,25.6-25.6h204.8c9.429,0,17.067,7.637,17.067,17.067c0,9.429-7.637,17.067-17.067,17.067
	H110.933c-4.71,0-8.533,3.823-8.533,8.533v264.533c0,4.71,3.823,8.533,8.533,8.533H128z M256,230.4H119.467v-17.067h128
	c8.499-0.026,16.683-3.243,22.921-9.02c5.052,7.876,2.765,18.355-5.111,23.407C262.511,229.496,259.285,230.426,256,230.4z
	 M317.867,186.965c2.398,7.236-1.246,15.087-8.32,17.92c-7.373,2.961-15.753-0.623-18.714-7.996
	c-0.111-0.273-0.213-0.546-0.299-0.819l-19.849-59.537h9.873l22.357,5.589L317.867,186.965z M409.6,151.202l-119.467-29.867V49.331
	L409.6,19.465V151.202z M426.667,109.474V61.193c13.329,4.702,20.326,19.328,15.625,32.657
	C439.714,101.154,433.971,106.897,426.667,109.474z"/>
<path d="M2.5,87.825l0.521,0.521c11.093,36.036,49.297,56.252,85.325,45.167c28.646-8.815,48.188-35.277,48.188-65.246V8.533
	C136.533,3.823,132.71,0,128,0H68.267C30.626-0.06,0.06,30.404,0,68.045c-0.009,6.596,0.939,13.15,2.807,19.473L2.5,87.825z
	 M68.267,119.467c-19.029-0.017-36.48-10.581-45.312-27.443c26.505-24.26,60.629-38.545,96.512-40.405v16.649
	C119.441,96.529,96.529,119.441,68.267,119.467z M68.267,17.067h51.2v17.485c-37.41,1.673-73.25,15.539-102.05,39.484
	C14.123,46.063,34.133,20.71,62.106,17.417C64.154,17.178,66.21,17.058,68.267,17.067z"/>
<g>
</g>
<g>
</g>
<g>
</g>
<g>
</g>
<g>
</g>
<g>
</g>
<g>
</g>
<g>
</g>
<g>
</g>
<g>
</g>
<g>
</g>
<g>
</g>
<g>
</g>
<g>
</g>
<g>
</g>
</svg>
