<?xml version="1.0"?>
<svg xmlns="http://www.w3.org/2000/svg" height="512px" viewBox="0 0 512 512" width="512px"><g><path d="m45 192h-45v-40h45zm-26.574219 79.003906 17.996094 35.722656 42.4375-21.375-17.992187-35.722656zm59.433594-215.410156-41.441406-20.871094-17.992188 35.726563 41.441407 20.867187zm355.28125 229.757812 42.441406 21.375 17.992188-35.722656-42.441407-21.375zm60.433594-214.902343-17.992188-35.726563-41.441406 20.871094 17.992187 35.722656zm-65.578125 100.40625h.003906l-.003906 1.144531c-.316406 68.6875-29.203125 106.699219-54.707032 140.261719-21.328124 28.066406-38.175781 50.242187-38.175781 87.152343v52.585938c0 33.085938-26.917969 60-60 60h-38.222656c-33.085937 0-60-26.914062-60-60v-52.585938c0-36.910156-16.851563-59.085937-38.179687-87.152343-25.503907-33.5625-54.390626-71.574219-54.707032-140.261719h-.003906l.003906-1.144531c.617188-94.316407 77.535156-170.855469 171.996094-170.855469s171.378906 76.539062 171.996094 170.855469zm-132.886719 281.144531v-39h-78.222656v39c0 11.027344 8.972656 20 20 20h38.222656c11.03125 0 20-8.972656 20-20zm92.890625-280.507812c-.273438-72.554688-59.382812-131.492188-132-131.492188s-131.726562 58.9375-132 131.492188c.171875 55.523437 22.707031 85.179687 46.558594 116.566406 18.507812 24.355468 37.527344 49.382812 44.007812 84.941406h82.867188c6.480468-35.558594 25.5-60.585938 44.007812-84.941406 23.851563-31.386719 46.386719-61.042969 46.558594-116.566406zm-122.53125-80.03125c-20.902344-2.316407-41.804688 4.328124-57.339844 18.234374-15.335937 13.726563-24.128906 33.367188-24.128906 53.882813h40c0-9.289063 3.839844-17.839844 10.808594-24.078125 7.171875-6.421875 16.496094-9.363281 26.25-8.28125 15.039062 1.667969 27.140625 13.6875 28.777344 28.578125 1.148437 10.445313-3.871094 20.441406-16.789063 33.417969-3.160156 3.175781-6.085937 5.964844-8.914063 8.664062-14.558593 13.882813-27.128906 25.871094-27.128906 52.117188v1.003906h40v-1.003906c0-8.613282 1.667969-10.707032 14.734375-23.171875 2.875-2.738281 6.128907-5.847657 9.660157-9.390625 13.707031-13.773438 31.542968-35.59375 28.199218-66.007813-3.667968-33.347656-30.636718-60.246093-64.128906-63.964843zm-28.46875 233.539062h40v-40h-40zm230-173v40h45v-40zm0 0" data-original="#000000" class="active-path" data-old_color="#000000" fill="#FFC729"/></g> </svg>
