<svg height="512pt" viewBox="0 0 512 512" width="512pt" xmlns="http://www.w3.org/2000/svg"><path d="m502 60c0 27.613281-22.386719 50-50 50s-50-22.386719-50-50 22.386719-50 50-50 50 22.386719 50 50zm0 0" fill="#ffd170"/><path d="m452 120c-33.085938 0-60-26.914062-60-60s26.914062-60 60-60 60 26.914062 60 60-26.914062 60-60 60zm0-100c-22.054688 0-40 17.945312-40 40s17.945312 40 40 40 40-17.945312 40-40-17.945312-40-40-40zm0 0"/><path d="m268.144531 93.890625c0-32.078125-26.007812-58.082031-58.085937-58.082031-7.03125 0-13.769532 1.25-20.007813 3.539062-12.902343-17.777344-33.832031-29.347656-57.476562-29.347656-27.835938 0-51.910157 16.027344-63.546875 39.347656-2.429688-.351562-4.914063-.542968-7.441406-.542968-28.492188 0-51.585938 23.09375-51.585938 51.585937h257.773438c.238281-2.132813.371093-4.300781.371093-6.5zm0 0" fill="#4bc6ff"/><path d="m267.773438 110.390625h-257.773438c-5.523438 0-10-4.480469-10-10 0-34.566406 28.644531-62.621094 63.417969-61.558594 14.65625-24.117187 40.570312-38.832031 69.15625-38.832031 23.421875 0 45.75 10.277344 61.054687 27.804688 5.347656-1.328126 10.847656-1.996094 16.429688-1.996094 37.542968 0 68.085937 30.542968 68.085937 68.082031 0 2.472656-.148437 5.03125-.433593 7.605469-.566407 5.066406-4.84375 8.894531-9.9375 8.894531zm-246.558594-20h236.800781c-1.800781-24.886719-22.621094-44.582031-47.957031-44.582031-5.699219 0-11.273438.984375-16.566406 2.925781-4.195313 1.542969-8.910157.105469-11.535157-3.511719-11.460937-15.792968-29.921875-25.222656-49.382812-25.222656-23.273438 0-44.191407 12.957031-54.597657 33.8125-1.925781 3.859375-6.113281 6.046875-10.378906 5.433594-2.015625-.292969-4.039062-.441406-6.011718-.441406-19.484376 0-35.882813 13.46875-40.371094 31.585937zm0 0"/><path d="m126 415.207031h-116v86.792969h492v-86.792969h-116.5" fill="#a7dbd8"/><path d="m447.488281 468.601562c-.648437 0-1.296875-.070312-1.949219-.203124-.640624-.117188-1.269531-.308594-1.867187-.558594-.601563-.25-1.183594-.558594-1.722656-.917969-.550781-.371094-1.058594-.792969-1.519531-1.25-.46875-.460937-.878907-.972656-1.25-1.523437-.359376-.539063-.667969-1.117188-.917969-1.71875-.25-.609376-.441407-1.238282-.570313-1.871094-.132812-.648438-.191406-1.308594-.191406-1.957032 0-.652343.058594-1.3125.191406-1.953124.128906-.636719.320313-1.269532.570313-1.867188.25-.609375.558593-1.191406.917969-1.730469.359374-.550781.78125-1.058593 1.242187-1.519531.457031-.460938.976563-.882812 1.519531-1.242188.546875-.359374 1.128906-.667968 1.730469-.917968.597656-.25 1.226563-.441406 1.867187-.570313 1.289063-.261719 2.621094-.261719 3.910157 0 .640625.128907 1.269531.320313 1.871093.570313.601563.25 1.179688.558594 1.730469.917968.539063.359376 1.058594.78125 1.519531 1.242188.460938.460938.878907.96875 1.238282 1.519531.363281.539063.671875 1.121094.921875 1.730469.25.601562.441406 1.230469.570312 1.867188.128907.640624.199219 1.300781.199219 1.953124 0 .648438-.070312 1.308594-.199219 1.957032-.128906.632812-.320312 1.261718-.570312 1.871094-.25.601562-.558594 1.179687-.921875 1.71875-.359375.550781-.777344 1.0625-1.238282 1.523437-.460937.457031-.980468.878906-1.519531 1.25-.550781.359375-1.128906.667969-1.730469.917969-.601562.25-1.230468.441406-1.871093.558594-.648438.132812-1.300781.203124-1.960938.203124zm0 0"/><path d="m256 211.292969-117.839844 86.566406v160.742187h235.683594l-.003906-160.742187zm0 0" fill="#fcc595"/><path d="m223.328125 378.949219h65.339844v79.652343h-65.339844zm0 0" fill="#d38a5a"/><path d="m392.757812 311.753906-136.757812-100.460937-136.757812 100.460937v-54.757812l136.757812-100.460938 136.757812 100.460938zm0 0" fill="#ff5046"/><path d="m138.160156 297.859375-18.917968 13.894531v-54.757812l65.859374-48.378906-28.734374-21.109376-117.839844 86.566407.003906 141.132812h99.628906zm0 0" fill="#db9970"/><path d="m185.101562 208.617188 37.269532-27.378907-66.003906-48.488281-136.757813 100.460938v54.757812l136.757813-100.460938zm0 0" fill="#ff5046"/><path d="m355.632812 132.75-66.003906 48.488281 37.269532 27.378907 28.734374-21.109376 136.757813 100.460938v-54.757812zm0 0" fill="#ff5046"/><path d="m392.757812 256.996094v54.757812l-18.917968-13.894531.003906 117.347656h99.632812l-.003906-141.132812-117.839844-86.566407-28.734374 21.109376zm0 0" fill="#db9970"/><path d="m502 405.207031h-18.527344v-111.378906l2.996094 2.199219c1.75 1.285156 3.828125 1.941406 5.921875 1.941406 1.539063 0 3.089844-.355469 4.515625-1.078125 3.363281-1.703125 5.484375-5.152344 5.484375-8.921875v-54.757812c0-3.183594-1.515625-6.175782-4.082031-8.0625l-136.753906-100.460938c-3.523438-2.585938-8.320313-2.585938-11.84375 0l-60.085938 44.140625-27.703125-20.351563c-3.523437-2.589843-8.320313-2.589843-11.84375 0l-27.707031 20.351563-60.085938-44.140625c-3.519531-2.585938-8.316406-2.585938-11.839844 0l-136.757812 100.464844c-2.5625 1.882812-4.078125 4.875-4.078125 8.058594v54.757812c0 3.769531 2.121094 7.222656 5.484375 8.921875 1.425781.722656 2.972656 1.078125 4.515625 1.078125 2.089844 0 4.171875-.652344 5.917969-1.9375l3-2.203125v111.378906h-18.527344c-5.523438 0-10 4.476563-10 10v86.792969c0 5.523438 4.476562 10 10 10h492c5.523438 0 10-4.476562 10-10v-86.792969c0-5.523437-4.476562-10-10-10zm-38.527344-126.070312.003906 126.070312h-79.632812l-.003906-87.59375 3 2.203125c.050781.039063.101562.074219.152344.113282.019531.011718.035156.019531.050781.03125.035156.027343.070312.050781.109375.074218.019531.015625.039062.027344.058594.042969.03125.019531.0625.042969.097656.0625.019531.015625.042968.03125.066406.042969.03125.023437.066406.042968.101562.066406.015626.011719.035157.023438.054688.03125.035156.023438.074219.046875.113281.070312.015625.007813.035157.019532.050781.03125.046876.023438.089844.050782.136719.078126.007813.003906.019531.011718.027344.015624.113281.0625.226563.125.34375.183594.007813.003906.011719.003906.019531.007813.046875.027343.097656.050781.148438.074219.011718.007812.027344.015624.039062.019531.042969.023437.089844.042969.136719.0625.011719.007812.023437.011719.035156.019531.050781.019531.097657.042969.144531.066406.011719.003906.019532.007813.027344.011719 2.296875 1.003906 4.902344 1.109375 7.285156.28125.007813-.003906.007813-.003906.011719-.003906.171875-.0625.339844-.125.507813-.195313.015625-.007812.03125-.011718.046875-.019531.03125-.011719.0625-.023437.09375-.039063.019531-.007812.039062-.015624.058593-.023437.027344-.011719.050782-.023437.078126-.035156.027343-.011719.050781-.023438.078124-.035157.023438-.007812.046876-.019531.070313-.03125.027344-.011718.058594-.027343.089844-.042968.019531-.007813.035156-.015625.054687-.027344.050782-.023438.097656-.046875.144532-.070312 3.363281-1.703126 5.484374-5.152344 5.484374-8.921876v-54.761718c0-3.183594-1.515624-6.175782-4.078124-8.058594l-54.890626-40.320312 11.84375-8.699219zm-184.800781 169.464843h-45.34375v-59.652343h45.34375zm10-79.652343h-65.34375c-5.519531 0-10 4.480469-10 10v69.652343h-65.167969v-145.679687l107.839844-79.21875 107.839844 79.21875.003906 145.679687h-65.171875v-69.652343c0-5.519531-4.480469-10-10-10zm66.960937-223.792969 126.757813 93.117188v29.941406l-120.835937-88.769532c-3.246094-2.382812-7.578126-2.570312-10.992188-.558593-.292969.171875-.574219.359375-.847656.558593l-22.816406 16.761719-20.378907-14.972656zm-99.632812 23.785156 126.757812 93.117188v29.941406l-120.835937-88.765625c-.277344-.203125-.558594-.390625-.851563-.558594-3.125-1.84375-7.015624-1.84375-10.144531 0-.289062.171875-.570312.355469-.847656.558594l-120.835937 88.765625v-29.941406zm-226.390625 69.332032 126.757813-93.117188 49.113281 36.078125-20.378907 14.972656-22.816406-16.757812c-3.519531-2.589844-8.316406-2.589844-11.839844 0l-120.835937 88.765625zm18.917969 40.863281 107.839844-79.222657 11.84375 8.703126-54.890626 40.320312c-.039062.027344-.078124.058594-.117187.085938-2.058594 1.5625-3.417969 3.839843-3.828125 6.351562-.015625.097656-.03125.195312-.042969.292969-.011719.097656-.023437.195312-.035156.292969-.035156.339843-.054687.6875-.054687 1.035156v54.761718c0 3.769532 2.121093 7.21875 5.484374 8.921876.050782.023437.105469.050781.15625.078124 1.136719.546876 2.339844.867188 3.558594.964844 2.355469.191406 4.75-.457031 6.722656-1.90625l2.996094-2.203125v87.59375h-79.628906zm79.632812 146.070312v23.394531h-108.160156v-23.394531zm363.839844 66.792969h-472v-23.398438h387c5.523438 0 10-4.476562 10-10 0-5.519531-4.476562-10-10-10h-23.15625v-23.394531h108.15625zm0 0"/><path d="m289.273438 304.695312c0 18.375-14.898438 33.273438-33.273438 33.273438s-33.273438-14.898438-33.273438-33.273438 14.898438-33.273437 33.273438-33.273437 33.273438 14.898437 33.273438 33.273437zm0 0" fill="#a7dbd8"/><path d="m256 347.96875c-23.859375 0-43.273438-19.410156-43.273438-43.273438 0-23.859374 19.414063-43.269531 43.273438-43.269531s43.273438 19.410157 43.273438 43.269531c0 23.863282-19.414063 43.273438-43.273438 43.273438zm0-66.546875c-12.832031 0-23.273438 10.441406-23.273438 23.273437 0 12.832032 10.441407 23.273438 23.273438 23.273438s23.273438-10.441406 23.273438-23.273438c0-12.832031-10.441407-23.273437-23.273438-23.273437zm0 0"/></svg>