<svg width="184" height="176" viewBox="0 0 184 176" fill="none" xmlns="http://www.w3.org/2000/svg">
<path d="M62.3226 150.451C63.3906 150.451 64.4006 150.736 65.2613 151.189C67.0408 152.183 68.2581 154.028 68.2581 156.129C68.2581 156.839 68.1392 157.491 67.8726 158.116C67.0408 160.273 64.8454 161.806 62.3226 161.806C59.0578 161.806 56.3871 159.252 56.3871 156.129C56.3871 155.278 56.5653 154.482 56.9218 153.772C57.871 151.814 59.949 150.451 62.3226 150.451Z" fill="#FFC729"/>
<path d="M122.272 123.2C123.696 124.25 124.645 125.897 124.645 127.742C124.645 130.865 121.974 133.419 118.71 133.419C118.116 133.419 117.582 133.335 117.048 133.192C114.584 132.482 112.774 130.296 112.774 127.742C112.774 124.931 114.912 122.604 117.73 122.149C118.056 122.092 118.384 122.064 118.71 122.064C120.046 122.064 121.262 122.49 122.272 123.2Z" fill="#FFC729"/>
<path d="M151.355 65.1488V65.2902C151.355 68.4131 148.684 70.9676 145.419 70.9676C142.808 70.9676 140.582 69.321 139.81 67.0783C139.603 66.5114 139.484 65.9153 139.484 65.2902C139.484 64.8924 139.513 64.5237 139.603 64.155C140.166 61.5713 142.57 59.6128 145.419 59.6128C148.625 59.6128 151.266 62.0828 151.355 65.1488Z" fill="#FFC729"/>
<path d="M115.742 76.645C115.742 79.4559 113.605 81.7832 110.786 82.2378C110.46 82.2947 110.133 82.3224 109.806 82.3224C108.738 82.3224 107.728 82.0382 106.868 81.585C105.088 80.5911 103.871 78.7463 103.871 76.645C103.871 76.1626 103.93 75.708 104.049 75.2824C104.435 73.834 105.384 72.5851 106.691 71.8186C107.61 71.2794 108.679 70.9675 109.806 70.9675C112.418 70.9675 114.644 72.6142 115.416 74.8569C115.623 75.4238 115.742 76.0198 115.742 76.645Z" fill="#FFC729"/>
<path d="M70.5433 63.6435C71.5518 62.9061 72.8285 62.4514 74.1935 62.4514C77.4584 62.4514 80.129 65.006 80.129 68.1288C80.129 68.6112 80.0696 69.0658 79.9508 69.4914C79.5349 71.1089 78.3785 72.4437 76.8642 73.1811C76.0629 73.5789 75.1427 73.8063 74.1935 73.8063C70.9287 73.8063 68.2581 71.2517 68.2581 68.1288C68.2581 66.3117 69.1478 64.6941 70.5433 63.6435Z" fill="#FFC729"/>
<path d="M76.954 15.6128C77.1018 16.0674 77.1612 16.5498 77.1612 17.0322C77.1612 20.155 74.4906 22.7096 71.2258 22.7096C68.5551 22.7096 66.2699 21.0061 65.5569 18.6497C65.3787 18.1396 65.2903 17.6005 65.2903 17.0322C65.2903 13.9093 67.961 11.3547 71.2258 11.3547C73.9863 11.3547 76.3005 13.1719 76.954 15.6128Z" fill="#FFC729"/>
<path d="M181.032 34.0644C181.032 45.9016 174.148 56.2058 163.997 61.4868C160.287 63.4162 156.133 64.6942 151.711 65.1197L151.355 65.1488C151.266 62.0828 148.625 59.6128 145.419 59.6128C142.57 59.6128 140.166 61.5714 139.603 64.155C125.832 60.4639 115.742 48.3994 115.742 34.0644C115.742 28.6712 117.166 23.5898 119.718 19.1335C125.239 9.42393 135.981 2.83862 148.387 2.83862C166.431 2.83862 181.032 16.8049 181.032 34.0644Z" fill="#E6E9ED"/>
<path d="M163.997 114.513C174.148 119.794 181.032 130.069 181.032 141.936C181.032 159.195 166.431 173.161 148.387 173.161C135.981 173.161 125.239 166.576 119.718 156.866C117.166 152.41 115.742 147.329 115.742 141.936C115.742 138.899 116.187 135.974 117.048 133.192C117.582 133.335 118.116 133.419 118.71 133.419C121.974 133.419 124.645 130.865 124.645 127.742C124.645 125.897 123.696 124.25 122.272 123.2C128.207 115.621 137.703 110.71 148.387 110.71C154.026 110.71 159.338 112.072 163.997 114.513Z" fill="#E6E9ED"/>
<path d="M41.5484 51.0967C53.1223 51.0967 63.45 55.9508 70.5433 63.6436C69.1478 64.6942 68.2581 66.3118 68.2581 68.1289C68.2581 71.2518 70.9288 73.8064 74.1936 73.8064C75.1427 73.8064 76.0629 73.579 76.8643 73.1812C78.9712 77.7234 80.1291 82.7203 80.1291 87.9999C80.1291 108.382 62.8573 124.903 41.5484 124.903C34.6044 124.903 28.1052 123.143 22.4653 120.077V120.049C10.832 113.719 2.96777 101.739 2.96777 87.9999C2.96777 74.261 10.832 62.281 22.4653 55.9508V55.923C28.1052 52.857 34.6044 51.0967 41.5484 51.0967Z" fill="#E6E9ED"/>
<path d="M163.226 153.29V156.129H133.548V153.29C133.548 145.456 140.197 139.097 148.387 139.097C152.482 139.097 156.192 140.687 158.893 143.241C161.564 145.825 163.226 149.373 163.226 153.29Z" fill="#B4DD7F"/>
<path d="M157.29 130.581C157.29 135.284 153.304 139.097 148.387 139.097C143.47 139.097 139.484 135.284 139.484 130.581C139.484 125.878 143.47 122.064 148.387 122.064C153.304 122.064 157.29 125.878 157.29 130.581Z" fill="#E8D197" fill-opacity="0.74"/>
<path d="M163.226 45.4194V48.2581H133.548V45.4194C133.548 37.5852 140.197 31.2258 148.387 31.2258C152.482 31.2258 156.192 32.8157 158.893 35.3702C161.564 37.9539 163.226 41.5023 163.226 45.4194Z" fill="#FF826E"/>
<path d="M157.29 22.7097C157.29 27.4127 153.304 31.2259 148.387 31.2259C143.47 31.2259 139.484 27.4127 139.484 22.7097C139.484 18.0067 143.47 14.1936 148.387 14.1936C153.304 14.1936 157.29 18.0067 157.29 22.7097Z" fill="#F0D0B4"/>
<path d="M62.3226 105.032V107.871H20.7742V105.032C20.7742 94.0462 30.0629 85.1614 41.5484 85.1614C47.3056 85.1614 52.4702 87.375 56.2393 90.9802C60.0084 94.5854 62.3226 99.5254 62.3226 105.032Z" fill="#FCD770"/>
<path d="M50.4516 70.9678V76.6452C50.4516 81.3579 46.4753 85.1613 41.5484 85.1613C36.6215 85.1613 32.6451 81.3579 32.6451 76.6452V70.9678C32.6451 66.2551 36.6215 62.4517 41.5484 62.4517C44.0118 62.4517 46.2376 63.4164 47.8403 64.9494C49.443 66.4824 50.4516 68.6114 50.4516 70.9678Z" fill="#B08B6B"/>
<path d="M65.2903 105.032C65.2903 95.543 59.1678 87.4039 50.5052 84.0149C52.2977 82.0245 53.4193 79.4699 53.4193 76.6451V70.9676C53.4193 64.7053 48.0953 59.6128 41.5483 59.6128C35.0013 59.6128 29.6774 64.7053 29.6774 70.9676V76.6451C29.6774 79.4699 30.799 82.0245 32.5915 84.0149C23.9288 87.4039 17.8064 95.543 17.8064 105.032V110.71H65.2903V105.032ZM35.6128 76.6451V70.9676C35.6128 67.8365 38.2748 65.2902 41.5483 65.2902C44.8218 65.2902 47.4838 67.8365 47.4838 70.9676V76.6451C47.4838 79.7762 44.8218 82.3225 41.5483 82.3225C38.2748 82.3225 35.6128 79.7762 35.6128 76.6451ZM23.7419 105.032C23.7419 95.6386 31.7278 87.9999 41.5483 87.9999C51.3688 87.9999 59.3548 95.6386 59.3548 105.032H23.7419Z" fill="black"/>
<path d="M166.194 45.4193C166.194 39.0044 162.464 33.4116 156.973 30.5077C158.997 28.4688 160.258 25.7326 160.258 22.7096C160.258 16.4472 154.934 11.3547 148.387 11.3547C141.84 11.3547 136.516 16.4472 136.516 22.7096C136.516 25.7326 137.777 28.4688 139.801 30.5077C134.311 33.4116 130.581 39.0044 130.581 45.4193V51.0967H166.194V45.4193ZM142.452 22.7096C142.452 19.5784 145.114 17.0322 148.387 17.0322C151.661 17.0322 154.323 19.5784 154.323 22.7096C154.323 25.8407 151.661 28.387 148.387 28.387C145.114 28.387 142.452 25.8407 142.452 22.7096ZM136.516 45.4193C136.516 39.1569 141.84 34.0644 148.387 34.0644C154.934 34.0644 160.258 39.1569 160.258 45.4193H136.516Z" fill="black"/>
<path d="M156.973 138.379C158.997 136.34 160.258 133.604 160.258 130.581C160.258 124.318 154.934 119.226 148.387 119.226C141.84 119.226 136.516 124.318 136.516 130.581C136.516 133.604 137.777 136.34 139.801 138.379C134.311 141.283 130.581 146.876 130.581 153.29V158.968H166.194V153.29C166.194 146.876 162.464 141.283 156.973 138.379ZM142.452 130.581C142.452 127.449 145.114 124.903 148.387 124.903C151.661 124.903 154.323 127.449 154.323 130.581C154.323 133.712 151.661 136.258 148.387 136.258C145.114 136.258 142.452 133.712 142.452 130.581ZM136.516 153.29C136.516 147.028 141.84 141.936 148.387 141.936C154.934 141.936 160.258 147.028 160.258 153.29H136.516Z" fill="black"/>
<path d="M167.615 113.307C170.6 105.165 172.129 96.6672 172.129 88C172.129 79.3591 170.609 70.8832 167.641 62.7607C177.554 56.6924 184 46.0777 184 34.0645C184 15.2802 168.025 0 148.387 0C135.834 0 124.803 6.25958 118.458 15.6725C109.946 12.8172 101.061 11.3548 92 11.3548C87.5339 11.3548 83.0707 11.7291 78.6959 12.4304C77.1077 10.0824 74.3602 8.51613 71.2258 8.51613C66.4003 8.51613 62.4805 12.2156 62.3458 16.7994C44.1654 23.7492 28.9355 37.1555 20.2047 53.9674C8.12506 60.9241 0 73.557 0 88C0 102.454 8.13521 115.092 20.2279 122.048C27.4878 136.014 39.2269 147.661 53.5179 155.175C53.4817 155.493 53.4194 155.802 53.4194 156.129C53.4194 160.824 57.4145 164.645 62.3226 164.645C65.1208 164.645 67.59 163.38 69.2232 161.443C76.5947 163.532 84.2358 164.645 92 164.645C101.061 164.645 109.946 163.183 118.458 160.327C124.803 169.74 135.834 176 148.387 176C168.025 176 184 160.72 184 141.935C184 129.928 177.456 119.377 167.615 113.307ZM166.194 88C166.194 95.7219 164.823 103.286 162.261 110.566C157.996 108.83 153.308 107.871 148.387 107.871C137.909 107.871 128.264 112.178 121.488 119.692C121.086 119.564 120.683 119.448 120.262 119.377L114.107 84.0538C116.79 82.6234 118.63 79.933 118.692 76.8046L138.436 70.5076C140.065 72.5008 142.576 73.8064 145.419 73.8064C149.455 73.8064 152.83 71.2089 153.923 67.6827C156.845 67.2489 159.641 66.499 162.267 65.4442C164.823 72.7225 166.194 80.2809 166.194 88ZM118.71 130.581C117.075 130.581 115.742 129.305 115.742 127.742C115.742 126.178 117.075 124.903 118.71 124.903C120.344 124.903 121.677 126.178 121.677 127.742C121.677 129.305 120.344 130.581 118.71 130.581ZM109.806 79.4839C108.172 79.4839 106.839 78.2087 106.839 76.6452C106.839 75.0816 108.172 73.8064 109.806 73.8064C111.441 73.8064 112.774 75.0816 112.774 76.6452C112.774 78.2087 111.441 79.4839 109.806 79.4839ZM142.452 65.2903C142.452 63.7268 143.785 62.4516 145.419 62.4516C147.054 62.4516 148.387 63.7268 148.387 65.2903C148.387 66.8538 147.054 68.129 145.419 68.129C143.785 68.129 142.452 66.8538 142.452 65.2903ZM148.387 5.67742C164.752 5.67742 178.065 18.4114 178.065 34.0645C178.065 47.9711 167.701 59.6101 153.626 61.9914C152.275 58.9282 149.106 56.7742 145.419 56.7742C142.301 56.7742 139.561 58.3211 137.971 60.6525C126.512 56.5413 118.71 45.9391 118.71 34.0645C118.71 18.4114 132.022 5.67742 148.387 5.67742ZM115.603 20.765C113.783 24.8526 112.774 29.349 112.774 34.0645C112.774 48.0058 121.748 60.4612 135.015 65.6174L116.793 71.4279C115.161 69.4347 112.65 68.129 109.806 68.129C109.156 68.129 108.527 68.2053 107.915 68.33L78.1438 22.3271C79.1668 21.106 79.832 19.627 80.0276 17.9942C91.8551 16.1604 104.162 17.0974 115.603 20.765ZM71.2258 14.1935C72.8604 14.1935 74.1936 15.4688 74.1936 17.0323C74.1936 18.5958 72.8604 19.871 71.2258 19.871C69.5912 19.871 68.2581 18.5958 68.2581 17.0323C68.2581 15.4688 69.5912 14.1935 71.2258 14.1935ZM64.2426 22.2495C65.8714 24.2427 68.3827 25.5484 71.2258 25.5484C71.8764 25.5484 72.5054 25.4722 73.1169 25.3474L102.888 71.3503C102.722 71.5499 102.538 71.7342 102.393 71.9477L83.0113 67.3112C82.5722 63.0019 78.8118 59.6129 74.1936 59.6129C73.1096 59.6129 72.0837 59.8264 71.1215 60.166C63.3312 52.6007 52.7108 48.2581 41.5484 48.2581C37.3257 48.2581 33.2509 48.8735 29.4079 49.9976C37.6938 37.5907 49.9676 27.7828 64.2426 22.2495ZM74.1936 65.2903C75.8281 65.2903 77.1613 66.5655 77.1613 68.129C77.1613 69.6925 75.8281 70.9677 74.1936 70.9677C72.559 70.9677 71.2258 69.6925 71.2258 68.129C71.2258 66.5655 72.559 65.2903 74.1936 65.2903ZM5.93548 88C5.93548 69.2157 21.9103 53.9355 41.5484 53.9355C50.953 53.9355 59.9156 57.5296 66.5612 63.8141C65.7743 65.0824 65.2903 66.5475 65.2903 68.129C65.2903 72.8237 69.2855 76.6452 74.1936 76.6452C74.4906 76.6452 74.7717 76.5883 75.063 76.5606C76.4309 80.2213 77.1613 84.051 77.1613 88C77.1613 106.784 61.1865 122.065 41.5484 122.065C21.9103 122.065 5.93548 106.784 5.93548 88ZM29.4079 126.002C33.2509 127.129 37.3257 127.742 41.5484 127.742C64.46 127.742 83.0968 109.915 83.0968 88C83.0968 83.2222 82.1737 78.5898 80.4551 74.1724C80.8855 73.7635 81.2709 73.313 81.61 72.8265L100.992 77.463C101.173 79.2566 101.925 80.8755 103.09 82.1687L63.9021 147.767C63.3877 147.678 62.8631 147.613 62.3226 147.613C59.9011 147.613 57.7072 148.55 56.0987 150.054C45.2697 144.3 36.0549 135.974 29.4079 126.002ZM62.3226 158.968C60.688 158.968 59.3548 157.693 59.3548 156.129C59.3548 154.566 60.688 153.29 62.3226 153.29C63.9572 153.29 65.2903 154.566 65.2903 156.129C65.2903 157.693 63.9572 158.968 62.3226 158.968ZM71.22 156.081C71.2084 153.983 70.3737 152.084 69.042 150.603L108.227 85.0074C108.237 85.0102 108.246 85.0074 108.257 85.0102L114.409 120.331C111.679 121.786 109.806 124.546 109.806 127.742C109.806 130.608 111.308 133.141 113.584 134.682C113.047 137.055 112.774 139.486 112.774 141.935C112.774 146.643 113.78 151.129 115.594 155.211C101.26 159.802 85.6341 160.089 71.22 156.081ZM148.387 170.323C132.022 170.323 118.71 157.589 118.71 141.935C118.71 139.991 118.985 138.078 119.392 136.193C123.977 135.852 127.613 132.216 127.613 127.742C127.613 126.05 127.081 124.48 126.188 123.154C131.824 117.043 139.769 113.548 148.387 113.548C164.752 113.548 178.065 126.282 178.065 141.935C178.065 157.589 164.752 170.323 148.387 170.323Z" fill="black"/>
<path d="M139.484 85.1614H145.419V90.8388H139.484V85.1614Z" fill="black"/>
<path d="M151.355 85.1614H157.29V90.8388H151.355V85.1614Z" fill="black"/>
<path d="M127.613 85.1614H133.548V90.8388H127.613V85.1614Z" fill="black"/>
</svg>
